<?xml version="1.0" encoding="utf-8"?>
<!-- Generator: Adobe Illustrator 22.1.0, SVG Export Plug-In . SVG Version: 6.00 Build 0)  -->
<svg version="1.1" id="Layer_1" xmlns="http://www.w3.org/2000/svg" xmlns:xlink="http://www.w3.org/1999/xlink" x="0px" y="0px"
	 viewBox="0 0 209.3 66.2" style="enable-background:new 0 0 209.3 66.2;" xml:space="preserve">
<style type="text/css">
	.st0{fill:#FFFFFF;}
</style>
<g>
	<path class="st0" d="M17.2,24.7h2.8c1.7,0,3.1-0.5,4.1-1.4c1-0.9,1.5-2.1,1.5-3.6c0-3.4-1.7-5.1-5.1-5.1c-1.6,0-2.9,0.5-3.8,1.4
		c-1,0.9-1.4,2.1-1.4,3.6h-3.7c0-2.3,0.8-4.2,2.5-5.8c1.7-1.5,3.8-2.3,6.4-2.3c2.7,0,4.9,0.7,6.5,2.2c1.6,1.5,2.3,3.5,2.3,6.1
		c0,1.3-0.4,2.5-1.2,3.7c-0.8,1.2-1.9,2.1-3.4,2.7c1.6,0.5,2.8,1.3,3.7,2.5c0.9,1.2,1.3,2.6,1.3,4.3c0,2.6-0.9,4.7-2.6,6.2
		c-1.7,1.5-3.9,2.3-6.7,2.3c-2.7,0-5-0.7-6.7-2.2c-1.7-1.5-2.6-3.4-2.6-5.9H15c0,1.5,0.5,2.8,1.5,3.7s2.3,1.4,4,1.4
		c1.8,0,3.2-0.5,4.1-1.4c0.9-0.9,1.4-2.3,1.4-4c0-1.7-0.5-3-1.6-3.9c-1-0.9-2.5-1.4-4.5-1.4h-2.8V24.7z"/>
	<path class="st0" d="M53.1,28.6c0,4.3-0.7,7.6-2.2,9.7c-1.5,2.1-3.8,3.2-6.9,3.2c-3.1,0-5.4-1-6.9-3.1c-1.5-2.1-2.3-5.1-2.3-9.2
		v-4.9c0-4.3,0.7-7.5,2.2-9.5s3.8-3.1,7-3.1c3.1,0,5.4,1,6.9,3c1.5,2,2.2,5.1,2.3,9.3V28.6z M49.4,23.6c0-3.1-0.4-5.4-1.3-6.9
		s-2.3-2.2-4.2-2.2c-1.9,0-3.3,0.7-4.1,2.1c-0.9,1.4-1.3,3.6-1.3,6.6v5.9c0,3.2,0.5,5.5,1.4,7c0.9,1.5,2.3,2.3,4.2,2.3
		c1.8,0,3.2-0.7,4.1-2.1c0.9-1.4,1.4-3.6,1.4-6.7V23.6z"/>
	<path class="st0" d="M76.1,28.6c0,4.3-0.7,7.6-2.2,9.7c-1.5,2.1-3.8,3.2-6.9,3.2c-3.1,0-5.4-1-6.9-3.1c-1.5-2.1-2.3-5.1-2.3-9.2
		v-4.9c0-4.3,0.7-7.5,2.2-9.5s3.8-3.1,7-3.1c3.1,0,5.4,1,6.9,3c1.5,2,2.2,5.1,2.3,9.3V28.6z M72.4,23.6c0-3.1-0.4-5.4-1.3-6.9
		s-2.3-2.2-4.2-2.2c-1.9,0-3.3,0.7-4.1,2.1c-0.9,1.4-1.3,3.6-1.3,6.6v5.9c0,3.2,0.5,5.5,1.4,7c0.9,1.5,2.3,2.3,4.2,2.3
		c1.8,0,3.2-0.7,4.1-2.1c0.9-1.4,1.4-3.6,1.4-6.7V23.6z"/>
	<path class="st0" d="M81.1,46.9L79,45.4c1.3-1.7,1.9-3.6,2-5.4v-3.3h3.6v2.9c0,1.3-0.3,2.7-1,4C82.9,45,82.1,46,81.1,46.9z"/>
	<path class="st0" d="M107.2,28.6c0,4.3-0.7,7.6-2.2,9.7c-1.5,2.1-3.8,3.2-6.9,3.2c-3.1,0-5.4-1-6.9-3.1c-1.5-2.1-2.3-5.1-2.3-9.2
		v-4.9c0-4.3,0.7-7.5,2.2-9.5s3.8-3.1,7-3.1c3.1,0,5.4,1,6.9,3c1.5,2,2.2,5.1,2.3,9.3V28.6z M103.5,23.6c0-3.1-0.4-5.4-1.3-6.9
		s-2.3-2.2-4.2-2.2c-1.9,0-3.3,0.7-4.1,2.1c-0.9,1.4-1.3,3.6-1.3,6.6v5.9c0,3.2,0.5,5.5,1.4,7c0.9,1.5,2.3,2.3,4.2,2.3
		c1.8,0,3.2-0.7,4.1-2.1c0.9-1.4,1.4-3.6,1.4-6.7V23.6z"/>
	<path class="st0" d="M130.2,28.6c0,4.3-0.7,7.6-2.2,9.7c-1.5,2.1-3.8,3.2-6.9,3.2c-3.1,0-5.4-1-6.9-3.1c-1.5-2.1-2.3-5.1-2.3-9.2
		v-4.9c0-4.3,0.7-7.5,2.2-9.5s3.8-3.1,7-3.1c3.1,0,5.4,1,6.9,3c1.5,2,2.2,5.1,2.3,9.3V28.6z M126.5,23.6c0-3.1-0.4-5.4-1.3-6.9
		s-2.3-2.2-4.2-2.2c-1.9,0-3.3,0.7-4.1,2.1c-0.9,1.4-1.3,3.6-1.3,6.6v5.9c0,3.2,0.5,5.5,1.4,7c0.9,1.5,2.3,2.3,4.2,2.3
		c1.8,0,3.2-0.7,4.1-2.1c0.9-1.4,1.4-3.6,1.4-6.7V23.6z"/>
	<path class="st0" d="M153.2,28.6c0,4.3-0.7,7.6-2.2,9.7c-1.5,2.1-3.8,3.2-6.9,3.2c-3.1,0-5.4-1-6.9-3.1c-1.5-2.1-2.3-5.1-2.3-9.2
		v-4.9c0-4.3,0.7-7.5,2.2-9.5s3.8-3.1,7-3.1c3.1,0,5.4,1,6.9,3c1.5,2,2.2,5.1,2.3,9.3V28.6z M149.5,23.6c0-3.1-0.4-5.4-1.3-6.9
		s-2.3-2.2-4.2-2.2c-1.9,0-3.3,0.7-4.1,2.1c-0.9,1.4-1.3,3.6-1.3,6.6v5.9c0,3.2,0.5,5.5,1.4,7c0.9,1.5,2.3,2.3,4.2,2.3
		c1.8,0,3.2-0.7,4.1-2.1c0.9-1.4,1.4-3.6,1.4-6.7V23.6z"/>
</g>
<g>
	<path class="st0" d="M168.9,25.4h8.1v3.5h-8.1v9.2h-3.7v-9.2h-8.1v-3.5h8.1v-8.5h3.7V25.4z"/>
</g>
<g>
	<path class="st0" d="M100.4,55c0-0.3-0.1-0.5-0.3-0.7s-0.6-0.3-1.2-0.4s-1-0.3-1.3-0.4s-0.6-0.4-0.7-0.6s-0.2-0.5-0.2-0.8
		c0-0.5,0.2-1,0.7-1.3s1-0.5,1.7-0.5c0.7,0,1.3,0.2,1.7,0.6s0.7,0.8,0.7,1.4h-1.1c0-0.3-0.1-0.6-0.4-0.8s-0.6-0.3-1-0.3
		c-0.4,0-0.7,0.1-0.9,0.3s-0.3,0.4-0.3,0.7c0,0.3,0.1,0.5,0.3,0.6s0.6,0.3,1.1,0.4s1,0.3,1.3,0.4s0.6,0.4,0.7,0.6s0.2,0.5,0.2,0.9
		c0,0.6-0.2,1-0.7,1.4s-1,0.5-1.8,0.5c-0.5,0-1-0.1-1.3-0.3s-0.7-0.4-0.9-0.8s-0.3-0.7-0.3-1h1.1c0,0.4,0.2,0.7,0.4,0.9
		s0.6,0.3,1.1,0.3c0.4,0,0.7-0.1,1-0.2S100.4,55.3,100.4,55z"/>
	<path class="st0" d="M104.4,48.8v1.5h1.2v0.8h-1.2v3.9c0,0.3,0.1,0.4,0.2,0.6s0.3,0.2,0.5,0.2c0.1,0,0.3,0,0.5-0.1v0.9
		c-0.3,0.1-0.6,0.1-0.8,0.1c-0.5,0-0.8-0.1-1.1-0.4s-0.4-0.7-0.4-1.2v-3.9h-1.2v-0.8h1.2v-1.5H104.4z"/>
	<path class="st0" d="M110.1,51.3c-0.2,0-0.3,0-0.5,0c-0.7,0-1.2,0.3-1.4,0.9v4.5H107v-6.3h1.1l0,0.7c0.4-0.6,0.9-0.8,1.5-0.8
		c0.2,0,0.4,0,0.5,0.1V51.3z"/>
	<path class="st0" d="M110.8,53.5c0-0.6,0.1-1.2,0.4-1.7s0.6-0.9,1-1.1s0.9-0.4,1.5-0.4c0.9,0,1.6,0.3,2.1,0.9s0.8,1.4,0.8,2.4v0.1
		c0,0.6-0.1,1.2-0.4,1.7s-0.6,0.9-1,1.1s-0.9,0.4-1.5,0.4c-0.9,0-1.6-0.3-2.1-0.9S110.8,54.5,110.8,53.5L110.8,53.5z M111.9,53.6
		c0,0.7,0.2,1.3,0.5,1.7s0.8,0.6,1.3,0.6c0.6,0,1-0.2,1.3-0.6s0.5-1,0.5-1.8c0-0.7-0.2-1.3-0.5-1.7s-0.8-0.6-1.3-0.6
		c-0.5,0-1,0.2-1.3,0.6S111.9,52.8,111.9,53.6z"/>
	<path class="st0" d="M119.1,50.4l0,0.8c0.5-0.6,1.1-0.9,1.9-0.9c1.3,0,2,0.8,2,2.3v4.2h-1.1v-4.2c0-0.5-0.1-0.8-0.3-1
		s-0.5-0.3-1-0.3c-0.4,0-0.7,0.1-0.9,0.3s-0.5,0.4-0.6,0.7v4.5H118v-6.3H119.1z"/>
	<path class="st0" d="M124.5,53.5c0-1,0.2-1.8,0.7-2.4s1.1-0.9,1.8-0.9c0.8,0,1.4,0.3,1.8,0.8l0.1-0.7h1v6.2c0,0.8-0.2,1.5-0.7,1.9
		s-1.1,0.7-2,0.7c-0.5,0-0.9-0.1-1.3-0.3s-0.8-0.5-1-0.8l0.6-0.7c0.5,0.6,1,0.9,1.7,0.9c0.5,0,0.9-0.1,1.2-0.4s0.4-0.7,0.4-1.3v-0.5
		c-0.4,0.5-1,0.8-1.8,0.8c-0.7,0-1.3-0.3-1.8-0.9S124.5,54.5,124.5,53.5z M125.6,53.6c0,0.7,0.1,1.3,0.4,1.7s0.7,0.6,1.2,0.6
		c0.7,0,1.2-0.3,1.5-0.9v-2.9c-0.3-0.6-0.8-0.9-1.5-0.9c-0.5,0-0.9,0.2-1.2,0.6S125.6,52.8,125.6,53.6z"/>
	<path class="st0" d="M138.6,56.7c-0.1-0.1-0.1-0.3-0.2-0.7c-0.5,0.5-1.1,0.8-1.8,0.8c-0.6,0-1.1-0.2-1.5-0.5s-0.6-0.8-0.6-1.3
		c0-0.7,0.3-1.2,0.8-1.5s1.2-0.5,2.1-0.5h1.1v-0.5c0-0.4-0.1-0.7-0.3-0.9s-0.6-0.3-1-0.3c-0.4,0-0.7,0.1-1,0.3s-0.4,0.4-0.4,0.7
		h-1.1c0-0.3,0.1-0.6,0.3-0.9s0.5-0.5,0.9-0.7s0.8-0.3,1.3-0.3c0.7,0,1.3,0.2,1.7,0.5s0.6,0.9,0.6,1.5v2.9c0,0.6,0.1,1,0.2,1.4v0.1
		H138.6z M136.8,55.9c0.3,0,0.7-0.1,1-0.3s0.5-0.4,0.7-0.7v-1.3h-0.8c-1.3,0-2,0.4-2,1.2c0,0.3,0.1,0.6,0.3,0.8
		S136.5,55.9,136.8,55.9z"/>
	<path class="st0" d="M142.4,50.4l0,0.8c0.5-0.6,1.1-0.9,1.9-0.9c1.3,0,2,0.8,2,2.3v4.2h-1.1v-4.2c0-0.5-0.1-0.8-0.3-1
		s-0.5-0.3-1-0.3c-0.4,0-0.7,0.1-0.9,0.3s-0.5,0.4-0.6,0.7v4.5h-1.1v-6.3H142.4z"/>
	<path class="st0" d="M147.8,53.5c0-1,0.2-1.8,0.7-2.3s1.1-0.9,1.8-0.9c0.7,0,1.3,0.3,1.8,0.8v-3.3h1.1v9h-1l-0.1-0.7
		c-0.4,0.5-1,0.8-1.8,0.8c-0.7,0-1.3-0.3-1.8-0.9S147.8,54.5,147.8,53.5L147.8,53.5z M148.9,53.6c0,0.7,0.1,1.3,0.4,1.7
		s0.7,0.6,1.2,0.6c0.7,0,1.2-0.3,1.5-0.9v-2.9c-0.3-0.6-0.8-0.9-1.5-0.9c-0.5,0-0.9,0.2-1.2,0.6S148.9,52.8,148.9,53.6z"/>
	<path class="st0" d="M157.8,53.5c0-1,0.2-1.8,0.7-2.4s1.1-0.9,1.8-0.9c0.8,0,1.4,0.3,1.8,0.8l0.1-0.7h1v6.2c0,0.8-0.2,1.5-0.7,1.9
		s-1.1,0.7-2,0.7c-0.5,0-0.9-0.1-1.3-0.3s-0.8-0.5-1-0.8l0.6-0.7c0.5,0.6,1,0.9,1.7,0.9c0.5,0,0.9-0.1,1.2-0.4s0.4-0.7,0.4-1.3v-0.5
		c-0.4,0.5-1,0.8-1.8,0.8c-0.7,0-1.3-0.3-1.8-0.9S157.8,54.5,157.8,53.5z M158.9,53.6c0,0.7,0.1,1.3,0.4,1.7s0.7,0.6,1.2,0.6
		c0.7,0,1.2-0.3,1.5-0.9v-2.9c-0.3-0.6-0.8-0.9-1.5-0.9c-0.5,0-0.9,0.2-1.2,0.6S158.9,52.8,158.9,53.6z"/>
	<path class="st0" d="M168,51.3c-0.2,0-0.3,0-0.5,0c-0.7,0-1.2,0.3-1.4,0.9v4.5h-1.1v-6.3h1.1l0,0.7c0.4-0.6,0.9-0.8,1.5-0.8
		c0.2,0,0.4,0,0.5,0.1V51.3z"/>
	<path class="st0" d="M168.7,53.5c0-0.6,0.1-1.2,0.4-1.7s0.6-0.9,1-1.1s0.9-0.4,1.5-0.4c0.9,0,1.6,0.3,2.1,0.9s0.8,1.4,0.8,2.4v0.1
		c0,0.6-0.1,1.2-0.4,1.7s-0.6,0.9-1,1.1s-0.9,0.4-1.5,0.4c-0.9,0-1.6-0.3-2.1-0.9S168.7,54.5,168.7,53.5L168.7,53.5z M169.8,53.6
		c0,0.7,0.2,1.3,0.5,1.7s0.8,0.6,1.3,0.6c0.6,0,1-0.2,1.3-0.6s0.5-1,0.5-1.8c0-0.7-0.2-1.3-0.5-1.7s-0.8-0.6-1.3-0.6
		c-0.5,0-1,0.2-1.3,0.6S169.8,52.8,169.8,53.6z"/>
	<path class="st0" d="M181.5,55.2l1.2-4.8h1.1l-1.8,6.3h-0.9l-1.5-4.8l-1.5,4.8h-0.9l-1.8-6.3h1.1l1.2,4.7l1.5-4.7h0.9L181.5,55.2z"
		/>
	<path class="st0" d="M185.1,48.7c0-0.2,0.1-0.3,0.2-0.4s0.3-0.2,0.5-0.2s0.4,0.1,0.5,0.2s0.2,0.3,0.2,0.4s-0.1,0.3-0.2,0.4
		s-0.3,0.2-0.5,0.2s-0.4-0.1-0.5-0.2S185.1,48.8,185.1,48.7z M186.2,56.7h-1.1v-6.3h1.1V56.7z"/>
	<path class="st0" d="M189.1,50.4l0,0.8c0.5-0.6,1.1-0.9,1.9-0.9c1.3,0,2,0.8,2,2.3v4.2H192v-4.2c0-0.5-0.1-0.8-0.3-1
		s-0.5-0.3-1-0.3c-0.4,0-0.7,0.1-0.9,0.3s-0.5,0.4-0.6,0.7v4.5h-1.1v-6.3H189.1z"/>
	<path class="st0" d="M194.6,53.5c0-1,0.2-1.8,0.7-2.4s1.1-0.9,1.8-0.9c0.8,0,1.4,0.3,1.8,0.8l0.1-0.7h1v6.2c0,0.8-0.2,1.5-0.7,1.9
		s-1.1,0.7-2,0.7c-0.5,0-0.9-0.1-1.3-0.3s-0.8-0.5-1-0.8l0.6-0.7c0.5,0.6,1,0.9,1.7,0.9c0.5,0,0.9-0.1,1.2-0.4s0.4-0.7,0.4-1.3v-0.5
		c-0.4,0.5-1,0.8-1.8,0.8c-0.7,0-1.3-0.3-1.8-0.9S194.6,54.5,194.6,53.5z M195.7,53.6c0,0.7,0.1,1.3,0.4,1.7s0.7,0.6,1.2,0.6
		c0.7,0,1.2-0.3,1.5-0.9v-2.9c-0.3-0.6-0.8-0.9-1.5-0.9c-0.5,0-0.9,0.2-1.2,0.6S195.7,52.8,195.7,53.6z"/>
</g>
</svg>
