<?xml version="1.0" encoding="utf-8"?>
<!-- Generator: Adobe Illustrator 22.1.0, SVG Export Plug-In . SVG Version: 6.00 Build 0)  -->
<svg version="1.1" id="Layer_1" xmlns="http://www.w3.org/2000/svg" xmlns:xlink="http://www.w3.org/1999/xlink" x="0px" y="0px"
	 viewBox="0 0 209.3 113.4" style="enable-background:new 0 0 209.3 113.4;" xml:space="preserve">
<style type="text/css">
	.st0{fill:none;stroke:#F1F2F2;stroke-width:0.75;stroke-linecap:round;stroke-miterlimit:10;stroke-dasharray:1.006,3.017;}
	.st1{fill:none;stroke:#F1F2F2;stroke-width:0.75;stroke-linecap:round;stroke-miterlimit:10;}
	.st2{fill:#FFFFFF;}
	.st3{fill:none;stroke:url(#SVGID_1_);stroke-width:7;stroke-linecap:round;stroke-miterlimit:10;}
</style>
<g>
	<g>
		<path class="st0" d="M129.5,36.1c-1.6,13.2-12.5,23.6-25.9,24.6"/>
	</g>
	<g>
		<path class="st0" d="M98,60.5C84.8,58.9,74.4,48,73.4,34.6"/>
	</g>
	<g>
		<path class="st0" d="M73.6,29C75.2,15.8,86.1,5.4,99.5,4.4"/>
	</g>
	<g>
		<path class="st0" d="M105,4.6c13.2,1.6,23.6,12.5,24.6,25.9"/>
	</g>
	<g>
		<path class="st1" d="M129.7,32c0,0.2,0,0.3,0,0.5s0,0.3,0,0.5 M101,4.4c0.2,0,0.3,0,0.5,0s0.3,0,0.5,0 M73.4,33.1
			c0-0.2,0-0.3,0-0.5s0-0.3,0-0.5 M102,60.7c-0.2,0-0.3,0-0.5,0s-0.3,0-0.5,0"/>
	</g>
</g>
<g>
	<path class="st2" d="M93.6,25.9V28h-0.2c-1.1,0-2.1,0.3-2.8,0.9s-1.1,1.4-1.3,2.4c0.7-0.7,1.5-1,2.6-1s2,0.4,2.7,1.2s1,1.8,1,3.1
		c0,0.8-0.2,1.6-0.5,2.3s-0.9,1.2-1.5,1.6S92.1,39,91.3,39c-1.3,0-2.4-0.5-3.3-1.4s-1.2-2.2-1.2-3.8V33c0-1.4,0.3-2.6,0.8-3.7
		c0.5-1.1,1.3-1.9,2.3-2.5s2.1-0.9,3.4-0.9C93.3,25.9,93.6,25.9,93.6,25.9z M91.2,32.3c-0.4,0-0.8,0.1-1.1,0.3
		c-0.3,0.2-0.6,0.5-0.7,0.8v0.8c0,0.8,0.2,1.5,0.5,2s0.8,0.7,1.4,0.7c0.5,0,1-0.2,1.3-0.6s0.5-1,0.5-1.7s-0.2-1.3-0.5-1.7
		S91.7,32.3,91.2,32.3z"/>
	<path class="st2" d="M104,25.9V28h-0.2c-1.1,0-2.1,0.3-2.8,0.9s-1.1,1.4-1.3,2.4c0.7-0.7,1.5-1,2.6-1s2,0.4,2.7,1.2s1,1.8,1,3.1
		c0,0.8-0.2,1.6-0.5,2.3s-0.9,1.2-1.5,1.6s-1.4,0.6-2.2,0.6c-1.3,0-2.4-0.5-3.3-1.4s-1.2-2.2-1.2-3.8V33c0-1.4,0.3-2.6,0.8-3.7
		c0.5-1.1,1.3-1.9,2.3-2.5s2.1-0.9,3.4-0.9C103.8,25.9,104,25.9,104,25.9z M101.5,32.3c-0.4,0-0.8,0.1-1.1,0.3
		c-0.3,0.2-0.6,0.5-0.7,0.8v0.8c0,0.8,0.2,1.5,0.5,2s0.8,0.7,1.4,0.7c0.5,0,1-0.2,1.3-0.6s0.5-1,0.5-1.7s-0.2-1.3-0.5-1.7
		S102.1,32.3,101.5,32.3z"/>
	<path class="st2" d="M107.4,28.5c0-0.8,0.3-1.4,0.8-1.9s1.2-0.7,2-0.7s1.5,0.2,2,0.7s0.8,1.1,0.8,2v0.6c0,0.8-0.3,1.4-0.8,1.9
		s-1.2,0.7-2,0.7s-1.5-0.2-2-0.7s-0.8-1.1-0.8-2V28.5z M109.1,29.2c0,0.4,0.1,0.6,0.3,0.9c0.2,0.2,0.5,0.3,0.8,0.3s0.6-0.1,0.8-0.3
		s0.3-0.5,0.3-0.9v-0.7c0-0.4-0.1-0.6-0.3-0.9s-0.5-0.3-0.8-0.3s-0.6,0.1-0.8,0.3c-0.2,0.2-0.3,0.5-0.3,0.9V29.2z M110.7,37.9
		l-1.2-0.7l6.2-10l1.2,0.7L110.7,37.9z M113.5,35.7c0-0.8,0.3-1.4,0.8-1.9s1.2-0.7,2-0.7s1.5,0.2,2,0.7s0.8,1.1,0.8,2v0.6
		c0,0.8-0.3,1.4-0.8,1.9s-1.2,0.7-2,0.7s-1.5-0.2-2-0.7s-0.8-1.1-0.8-1.9V35.7z M115.2,36.4c0,0.3,0.1,0.6,0.3,0.8s0.5,0.3,0.8,0.3
		c0.7,0,1.1-0.4,1.1-1.2v-0.7c0-0.4-0.1-0.6-0.3-0.9c-0.2-0.2-0.5-0.3-0.8-0.3s-0.6,0.1-0.8,0.3c-0.2,0.2-0.3,0.5-0.3,0.9
		C115.2,35.6,115.2,36.4,115.2,36.4z"/>
</g>
<g>
	<g>
		
			<linearGradient id="SVGID_1_" gradientUnits="userSpaceOnUse" x1="74.5" y1="430.9" x2="132.9" y2="430.9" gradientTransform="matrix(1 0 0 1 0 -398)">
			<stop  offset="0" style="stop-color:#FFC709"/>
			<stop  offset="1" style="stop-color:#EF4136"/>
		</linearGradient>
		<path class="st3" d="M101.4,4.9c15.4,0,28,12.5,28,28s-12.5,28-28,28c-9.9,0-18.1-4.4-23.4-12.7"/>
	</g>
</g>
<g>
	<path class="st2" d="M16.8,82.1l0.2,1.1l0.2-1l1.7-6h0.9l1.6,6l0.2,1l0.2-1.1l1.3-5.8h1.1l-2.1,8.5h-1l-1.8-6.2l-0.1-0.7l-0.1,0.7
		l-1.8,6.2h-1l-2.1-8.5h1.1L16.8,82.1z"/>
	<path class="st2" d="M25,81.5c0-0.6,0.1-1.2,0.4-1.7s0.6-0.9,1-1.1s0.9-0.4,1.5-0.4c0.9,0,1.6,0.3,2.1,0.9s0.8,1.4,0.8,2.4v0.1
		c0,0.6-0.1,1.2-0.4,1.7s-0.6,0.9-1,1.1s-0.9,0.4-1.5,0.4c-0.9,0-1.6-0.3-2.1-0.9S25,82.6,25,81.5L25,81.5z M26.1,81.7
		c0,0.7,0.2,1.3,0.5,1.7s0.8,0.6,1.3,0.6c0.6,0,1-0.2,1.3-0.6s0.5-1,0.5-1.8c0-0.7-0.2-1.3-0.5-1.7s-0.8-0.6-1.3-0.6
		c-0.5,0-1,0.2-1.3,0.6S26.1,80.9,26.1,81.7z"/>
	<path class="st2" d="M35.2,79.4c-0.2,0-0.3,0-0.5,0c-0.7,0-1.2,0.3-1.4,0.9v4.5h-1.1v-6.3h1.1l0,0.7c0.4-0.6,0.9-0.8,1.5-0.8
		c0.2,0,0.4,0,0.5,0.1V79.4z"/>
	<path class="st2" d="M37.9,81.8l-0.7,0.7v2.2h-1.1v-9h1.1v5.4l0.6-0.7l2-2.1h1.3l-2.5,2.6l2.8,3.7h-1.3L37.9,81.8z"/>
	<path class="st2" d="M45.2,76.7c0-0.2,0.1-0.3,0.2-0.4s0.3-0.2,0.5-0.2s0.4,0.1,0.5,0.2s0.2,0.3,0.2,0.4s-0.1,0.3-0.2,0.4
		s-0.3,0.2-0.5,0.2s-0.4-0.1-0.5-0.2S45.2,76.9,45.2,76.7z M46.4,84.8h-1.1v-6.3h1.1V84.8z"/>
	<path class="st2" d="M49.2,78.4l0,0.8c0.5-0.6,1.1-0.9,1.9-0.9c1.3,0,2,0.8,2,2.3v4.2H52v-4.2c0-0.5-0.1-0.8-0.3-1s-0.5-0.3-1-0.3
		c-0.4,0-0.7,0.1-0.9,0.3s-0.5,0.4-0.6,0.7v4.5h-1.1v-6.3H49.2z"/>
	<path class="st2" d="M57.4,81.5c0-0.6,0.1-1.2,0.4-1.7s0.6-0.9,1-1.1s0.9-0.4,1.5-0.4c0.9,0,1.6,0.3,2.1,0.9s0.8,1.4,0.8,2.4v0.1
		c0,0.6-0.1,1.2-0.4,1.7s-0.6,0.9-1,1.1s-0.9,0.4-1.5,0.4c-0.9,0-1.6-0.3-2.1-0.9S57.4,82.6,57.4,81.5L57.4,81.5z M58.5,81.7
		c0,0.7,0.2,1.3,0.5,1.7s0.8,0.6,1.3,0.6c0.6,0,1-0.2,1.3-0.6s0.5-1,0.5-1.8c0-0.7-0.2-1.3-0.5-1.7s-0.8-0.6-1.3-0.6
		c-0.5,0-1,0.2-1.3,0.6S58.5,80.9,58.5,81.7z"/>
	<path class="st2" d="M67.6,79.4c-0.2,0-0.3,0-0.5,0c-0.7,0-1.2,0.3-1.4,0.9v4.5h-1.1v-6.3h1.1l0,0.7c0.4-0.6,0.9-0.8,1.5-0.8
		c0.2,0,0.4,0,0.5,0.1V79.4z"/>
	<path class="st2" d="M68.3,81.5c0-1,0.2-1.8,0.7-2.4s1.1-0.9,1.8-0.9c0.8,0,1.4,0.3,1.8,0.8l0.1-0.7h1v6.2c0,0.8-0.2,1.5-0.7,1.9
		s-1.1,0.7-2,0.7c-0.5,0-0.9-0.1-1.3-0.3s-0.8-0.5-1-0.8l0.6-0.7c0.5,0.6,1,0.9,1.7,0.9c0.5,0,0.9-0.1,1.2-0.4s0.4-0.7,0.4-1.3v-0.5
		c-0.4,0.5-1,0.8-1.8,0.8c-0.7,0-1.3-0.3-1.8-0.9S68.3,82.6,68.3,81.5z M69.3,81.7c0,0.7,0.1,1.3,0.4,1.7S70.5,84,71,84
		c0.7,0,1.2-0.3,1.5-0.9v-2.9c-0.3-0.6-0.8-0.9-1.5-0.9c-0.5,0-0.9,0.2-1.2,0.6S69.3,80.9,69.3,81.7z"/>
	<path class="st2" d="M79.2,84.8c-0.1-0.1-0.1-0.3-0.2-0.7c-0.5,0.5-1.1,0.8-1.8,0.8c-0.6,0-1.1-0.2-1.5-0.5s-0.6-0.8-0.6-1.3
		c0-0.7,0.3-1.2,0.8-1.5s1.2-0.5,2.1-0.5H79v-0.5c0-0.4-0.1-0.7-0.3-0.9s-0.6-0.3-1-0.3c-0.4,0-0.7,0.1-1,0.3s-0.4,0.4-0.4,0.7h-1.1
		c0-0.3,0.1-0.6,0.3-0.9s0.5-0.5,0.9-0.7s0.8-0.3,1.3-0.3c0.7,0,1.3,0.2,1.7,0.5s0.6,0.9,0.6,1.5v2.9c0,0.6,0.1,1,0.2,1.4v0.1H79.2z
		 M77.4,83.9c0.3,0,0.7-0.1,1-0.3s0.5-0.4,0.7-0.7v-1.3h-0.8c-1.3,0-2,0.4-2,1.2c0,0.3,0.1,0.6,0.3,0.8S77,83.9,77.4,83.9z"/>
	<path class="st2" d="M82.8,78.4l0,0.8c0.5-0.6,1.1-0.9,1.9-0.9c1.3,0,2,0.8,2,2.3v4.2h-1.1v-4.2c0-0.5-0.1-0.8-0.3-1
		s-0.5-0.3-1-0.3c-0.4,0-0.7,0.1-0.9,0.3s-0.5,0.4-0.6,0.7v4.5h-1.1v-6.3H82.8z"/>
	<path class="st2" d="M88.4,76.7c0-0.2,0.1-0.3,0.2-0.4s0.3-0.2,0.5-0.2s0.4,0.1,0.5,0.2s0.2,0.3,0.2,0.4s-0.1,0.3-0.2,0.4
		s-0.3,0.2-0.5,0.2s-0.4-0.1-0.5-0.2S88.4,76.9,88.4,76.7z M89.6,84.8h-1.1v-6.3h1.1V84.8z"/>
	<path class="st2" d="M92.3,83.9H96v0.9h-5V84l3.5-4.6h-3.4v-0.9h4.8v0.8L92.3,83.9z"/>
	<path class="st2" d="M101.2,84.8c-0.1-0.1-0.1-0.3-0.2-0.7c-0.5,0.5-1.1,0.8-1.8,0.8c-0.6,0-1.1-0.2-1.5-0.5s-0.6-0.8-0.6-1.3
		c0-0.7,0.3-1.2,0.8-1.5s1.2-0.5,2.1-0.5h1.1v-0.5c0-0.4-0.1-0.7-0.3-0.9s-0.6-0.3-1-0.3c-0.4,0-0.7,0.1-1,0.3s-0.4,0.4-0.4,0.7
		h-1.1c0-0.3,0.1-0.6,0.3-0.9s0.5-0.5,0.9-0.7s0.8-0.3,1.3-0.3c0.7,0,1.3,0.2,1.7,0.5s0.6,0.9,0.6,1.5v2.9c0,0.6,0.1,1,0.2,1.4v0.1
		H101.2z M99.4,83.9c0.3,0,0.7-0.1,1-0.3s0.5-0.4,0.7-0.7v-1.3h-0.8c-1.3,0-2,0.4-2,1.2c0,0.3,0.1,0.6,0.3,0.8S99,83.9,99.4,83.9z"
		/>
	<path class="st2" d="M105.3,76.9v1.5h1.2v0.8h-1.2v3.9c0,0.3,0.1,0.4,0.2,0.6s0.3,0.2,0.5,0.2c0.1,0,0.3,0,0.5-0.1v0.9
		c-0.3,0.1-0.6,0.1-0.8,0.1c-0.5,0-0.8-0.1-1.1-0.4s-0.4-0.7-0.4-1.2v-3.9H103v-0.8h1.2v-1.5H105.3z"/>
	<path class="st2" d="M107.7,76.7c0-0.2,0.1-0.3,0.2-0.4s0.3-0.2,0.5-0.2s0.4,0.1,0.5,0.2s0.2,0.3,0.2,0.4s-0.1,0.3-0.2,0.4
		s-0.3,0.2-0.5,0.2s-0.4-0.1-0.5-0.2S107.7,76.9,107.7,76.7z M108.9,84.8h-1.1v-6.3h1.1V84.8z"/>
	<path class="st2" d="M110.3,81.5c0-0.6,0.1-1.2,0.4-1.7s0.6-0.9,1-1.1s0.9-0.4,1.5-0.4c0.9,0,1.6,0.3,2.1,0.9s0.8,1.4,0.8,2.4v0.1
		c0,0.6-0.1,1.2-0.4,1.7s-0.6,0.9-1,1.1s-0.9,0.4-1.5,0.4c-0.9,0-1.6-0.3-2.1-0.9S110.3,82.6,110.3,81.5L110.3,81.5z M111.4,81.7
		c0,0.7,0.2,1.3,0.5,1.7s0.8,0.6,1.3,0.6c0.6,0,1-0.2,1.3-0.6s0.5-1,0.5-1.8c0-0.7-0.2-1.3-0.5-1.7s-0.8-0.6-1.3-0.6
		c-0.5,0-1,0.2-1.3,0.6S111.4,80.9,111.4,81.7z"/>
	<path class="st2" d="M118.5,78.4l0,0.8c0.5-0.6,1.1-0.9,1.9-0.9c1.3,0,2,0.8,2,2.3v4.2h-1.1v-4.2c0-0.5-0.1-0.8-0.3-1
		s-0.5-0.3-1-0.3c-0.4,0-0.7,0.1-0.9,0.3s-0.5,0.4-0.6,0.7v4.5h-1.1v-6.3H118.5z"/>
	<path class="st2" d="M127.8,83.1c0-0.3-0.1-0.5-0.3-0.7s-0.6-0.3-1.2-0.4s-1-0.3-1.3-0.4s-0.6-0.4-0.7-0.6s-0.2-0.5-0.2-0.8
		c0-0.5,0.2-1,0.7-1.3s1-0.5,1.7-0.5c0.7,0,1.3,0.2,1.7,0.6s0.7,0.8,0.7,1.4h-1.1c0-0.3-0.1-0.6-0.4-0.8s-0.6-0.3-1-0.3
		c-0.4,0-0.7,0.1-0.9,0.3s-0.3,0.4-0.3,0.7c0,0.3,0.1,0.5,0.3,0.6s0.6,0.3,1.1,0.4s1,0.3,1.3,0.4s0.6,0.4,0.7,0.6s0.2,0.5,0.2,0.9
		c0,0.6-0.2,1-0.7,1.4s-1,0.5-1.8,0.5c-0.5,0-1-0.1-1.3-0.3s-0.7-0.4-0.9-0.8s-0.3-0.7-0.3-1h1.1c0,0.4,0.2,0.7,0.4,0.9
		s0.6,0.3,1.1,0.3c0.4,0,0.7-0.1,1-0.2S127.8,83.4,127.8,83.1z"/>
	<path class="st2" d="M133,81.5c0-1,0.2-1.8,0.7-2.4s1.1-0.9,1.8-0.9c0.8,0,1.4,0.3,1.8,0.8l0.1-0.7h1v6.2c0,0.8-0.2,1.5-0.7,1.9
		s-1.1,0.7-2,0.7c-0.5,0-0.9-0.1-1.3-0.3s-0.8-0.5-1-0.8l0.6-0.7c0.5,0.6,1,0.9,1.7,0.9c0.5,0,0.9-0.1,1.2-0.4s0.4-0.7,0.4-1.3v-0.5
		c-0.4,0.5-1,0.8-1.8,0.8c-0.7,0-1.3-0.3-1.8-0.9S133,82.6,133,81.5z M134.1,81.7c0,0.7,0.1,1.3,0.4,1.7s0.7,0.6,1.2,0.6
		c0.7,0,1.2-0.3,1.5-0.9v-2.9c-0.3-0.6-0.8-0.9-1.5-0.9c-0.5,0-0.9,0.2-1.2,0.6S134.1,80.9,134.1,81.7z"/>
	<path class="st2" d="M142.6,84.9c-0.9,0-1.6-0.3-2.1-0.8s-0.8-1.3-0.8-2.3v-0.2c0-0.6,0.1-1.2,0.4-1.7s0.6-0.9,1-1.2
		s0.9-0.4,1.4-0.4c0.8,0,1.5,0.3,1.9,0.8s0.7,1.3,0.7,2.3v0.5h-4.3c0,0.6,0.2,1.1,0.5,1.5s0.8,0.6,1.3,0.6c0.4,0,0.7-0.1,1-0.2
		s0.5-0.4,0.7-0.6l0.7,0.5C144.5,84.5,143.7,84.9,142.6,84.9z M142.5,79.2c-0.4,0-0.8,0.2-1.1,0.5s-0.5,0.8-0.6,1.3h3.2v-0.1
		c0-0.6-0.2-1-0.4-1.3S142.9,79.2,142.5,79.2z"/>
	<path class="st2" d="M147.4,78.4l0,0.8c0.5-0.6,1.1-0.9,1.9-0.9c1.3,0,2,0.8,2,2.3v4.2h-1.1v-4.2c0-0.5-0.1-0.8-0.3-1
		s-0.5-0.3-1-0.3c-0.4,0-0.7,0.1-0.9,0.3s-0.5,0.4-0.6,0.7v4.5h-1.1v-6.3H147.4z"/>
	<path class="st2" d="M155.6,84.9c-0.9,0-1.6-0.3-2.1-0.8s-0.8-1.3-0.8-2.3v-0.2c0-0.6,0.1-1.2,0.4-1.7s0.6-0.9,1-1.2
		s0.9-0.4,1.4-0.4c0.8,0,1.5,0.3,1.9,0.8s0.7,1.3,0.7,2.3v0.5h-4.3c0,0.6,0.2,1.1,0.5,1.5s0.8,0.6,1.3,0.6c0.4,0,0.7-0.1,1-0.2
		s0.5-0.4,0.7-0.6l0.7,0.5C157.4,84.5,156.6,84.9,155.6,84.9z M155.4,79.2c-0.4,0-0.8,0.2-1.1,0.5s-0.5,0.8-0.6,1.3h3.2v-0.1
		c0-0.6-0.2-1-0.4-1.3S155.9,79.2,155.4,79.2z"/>
	<path class="st2" d="M162.4,79.4c-0.2,0-0.3,0-0.5,0c-0.7,0-1.2,0.3-1.4,0.9v4.5h-1.1v-6.3h1.1l0,0.7c0.4-0.6,0.9-0.8,1.5-0.8
		c0.2,0,0.4,0,0.5,0.1V79.4z"/>
	<path class="st2" d="M167,84.8c-0.1-0.1-0.1-0.3-0.2-0.7c-0.5,0.5-1.1,0.8-1.8,0.8c-0.6,0-1.1-0.2-1.5-0.5S163,83.6,163,83
		c0-0.7,0.3-1.2,0.8-1.5s1.2-0.5,2.1-0.5h1.1v-0.5c0-0.4-0.1-0.7-0.3-0.9s-0.6-0.3-1-0.3c-0.4,0-0.7,0.1-1,0.3s-0.4,0.4-0.4,0.7
		h-1.1c0-0.3,0.1-0.6,0.3-0.9s0.5-0.5,0.9-0.7s0.8-0.3,1.3-0.3c0.7,0,1.3,0.2,1.7,0.5s0.6,0.9,0.6,1.5v2.9c0,0.6,0.1,1,0.2,1.4v0.1
		H167z M165.2,83.9c0.3,0,0.7-0.1,1-0.3s0.5-0.4,0.7-0.7v-1.3H166c-1.3,0-2,0.4-2,1.2c0,0.3,0.1,0.6,0.3,0.8S164.9,83.9,165.2,83.9z
		"/>
	<path class="st2" d="M171.1,76.9v1.5h1.2v0.8h-1.2v3.9c0,0.3,0.1,0.4,0.2,0.6s0.3,0.2,0.5,0.2c0.1,0,0.3,0,0.5-0.1v0.9
		c-0.3,0.1-0.6,0.1-0.8,0.1c-0.5,0-0.8-0.1-1.1-0.4s-0.4-0.7-0.4-1.2v-3.9h-1.2v-0.8h1.2v-1.5H171.1z"/>
	<path class="st2" d="M173.6,76.7c0-0.2,0.1-0.3,0.2-0.4s0.3-0.2,0.5-0.2s0.4,0.1,0.5,0.2s0.2,0.3,0.2,0.4s-0.1,0.3-0.2,0.4
		s-0.3,0.2-0.5,0.2s-0.4-0.1-0.5-0.2S173.6,76.9,173.6,76.7z M174.8,84.8h-1.1v-6.3h1.1V84.8z"/>
	<path class="st2" d="M177.5,78.4l0,0.8c0.5-0.6,1.1-0.9,1.9-0.9c1.3,0,2,0.8,2,2.3v4.2h-1.1v-4.2c0-0.5-0.1-0.8-0.3-1
		s-0.5-0.3-1-0.3c-0.4,0-0.7,0.1-0.9,0.3s-0.5,0.4-0.6,0.7v4.5h-1.1v-6.3H177.5z"/>
	<path class="st2" d="M182.9,81.5c0-1,0.2-1.8,0.7-2.4s1.1-0.9,1.8-0.9c0.8,0,1.4,0.3,1.8,0.8l0.1-0.7h1v6.2c0,0.8-0.2,1.5-0.7,1.9
		s-1.1,0.7-2,0.7c-0.5,0-0.9-0.1-1.3-0.3s-0.8-0.5-1-0.8l0.6-0.7c0.5,0.6,1,0.9,1.7,0.9c0.5,0,0.9-0.1,1.2-0.4s0.4-0.7,0.4-1.3v-0.5
		c-0.4,0.5-1,0.8-1.8,0.8c-0.7,0-1.3-0.3-1.8-0.9S182.9,82.6,182.9,81.5z M183.9,81.7c0,0.7,0.1,1.3,0.4,1.7s0.7,0.6,1.2,0.6
		c0.7,0,1.2-0.3,1.5-0.9v-2.9c-0.3-0.6-0.8-0.9-1.5-0.9c-0.5,0-0.9,0.2-1.2,0.6S183.9,80.9,183.9,81.7z"/>
	<path class="st2" d="M31.9,97.6c0-0.4-0.1-0.7-0.4-0.9s-0.7-0.5-1.3-0.7c-0.8-0.3-1.4-0.6-1.8-1s-0.6-0.9-0.6-1.6
		c0-0.6,0.2-1.2,0.6-1.6s0.9-0.7,1.5-0.7v-1.3h0.9v1.3c0.7,0.1,1.2,0.4,1.5,0.8s0.5,1.1,0.5,1.9h-1.1c0-0.6-0.1-1-0.4-1.3
		s-0.6-0.5-1.1-0.5c-0.5,0-0.8,0.1-1.1,0.4c-0.2,0.2-0.4,0.6-0.4,1c0,0.4,0.1,0.7,0.4,1c0.3,0.2,0.7,0.5,1.3,0.6
		c0.6,0.2,1.1,0.4,1.4,0.6s0.6,0.5,0.7,0.8s0.2,0.7,0.2,1.1c0,0.7-0.2,1.2-0.6,1.6s-1,0.6-1.7,0.7v1.1h-0.9v-1.1
		c-0.7-0.1-1.3-0.3-1.7-0.8s-0.6-1.1-0.6-1.8h1.1c0,0.5,0.1,1,0.4,1.3s0.7,0.4,1.2,0.4c0.5,0,0.9-0.1,1.2-0.4S31.9,98,31.9,97.6z"/>
	<path class="st2" d="M37.9,99.8h-1.1v-7.2l-2.2,0.8v-1l3.1-1.2h0.2V99.8z"/>
	<path class="st2" d="M46.4,96.1c0,1.3-0.2,2.2-0.7,2.8s-1.1,0.9-2,0.9c-0.9,0-1.6-0.3-2-0.9S41,97.5,41,96.3v-1.4
		c0-1.3,0.2-2.2,0.7-2.8s1.1-0.9,2-0.9c0.9,0,1.6,0.3,2,0.9s0.7,1.5,0.7,2.7V96.1z M45.3,94.6c0-0.9-0.1-1.6-0.4-2S44.2,92,43.7,92
		c-0.6,0-1,0.2-1.2,0.6s-0.4,1.1-0.4,1.9v1.7c0,0.9,0.1,1.6,0.4,2s0.7,0.7,1.2,0.7c0.5,0,0.9-0.2,1.2-0.6s0.4-1.1,0.4-2V94.6z"/>
	<path class="st2" d="M51.9,93.4l0,0.7c0.5-0.5,1.1-0.8,1.9-0.8c0.9,0,1.5,0.3,1.8,1c0.2-0.3,0.5-0.6,0.8-0.7s0.7-0.3,1.2-0.3
		c1.4,0,2.1,0.7,2.1,2.2v4.2h-1.1v-4.2c0-0.5-0.1-0.8-0.3-1s-0.6-0.3-1-0.3c-0.4,0-0.7,0.1-1,0.4s-0.4,0.6-0.5,1v4.2h-1.1v-4.2
		c0-0.9-0.5-1.4-1.4-1.4c-0.7,0-1.2,0.3-1.5,0.9v4.6h-1.1v-6.3H51.9z"/>
	<path class="st2" d="M61.4,91.7c0-0.2,0.1-0.3,0.2-0.4s0.3-0.2,0.5-0.2s0.4,0.1,0.5,0.2s0.2,0.3,0.2,0.4s-0.1,0.3-0.2,0.4
		s-0.3,0.2-0.5,0.2s-0.4-0.1-0.5-0.2S61.4,91.9,61.4,91.7z M62.6,99.8h-1.1v-6.3h1.1V99.8z"/>
	<path class="st2" d="M65.5,99.8h-1.1v-9h1.1V99.8z"/>
	<path class="st2" d="M68.4,99.8h-1.1v-9h1.1V99.8z"/>
	<path class="st2" d="M70.1,91.7c0-0.2,0.1-0.3,0.2-0.4s0.3-0.2,0.5-0.2s0.4,0.1,0.5,0.2s0.2,0.3,0.2,0.4s-0.1,0.3-0.2,0.4
		s-0.3,0.2-0.5,0.2s-0.4-0.1-0.5-0.2S70.1,91.9,70.1,91.7z M71.3,99.8h-1.1v-6.3h1.1V99.8z"/>
	<path class="st2" d="M72.7,96.5c0-0.6,0.1-1.2,0.4-1.7s0.6-0.9,1-1.1s0.9-0.4,1.5-0.4c0.9,0,1.6,0.3,2.1,0.9s0.8,1.4,0.8,2.4v0.1
		c0,0.6-0.1,1.2-0.4,1.7s-0.6,0.9-1,1.1s-0.9,0.4-1.5,0.4c-0.9,0-1.6-0.3-2.1-0.9S72.7,97.6,72.7,96.5L72.7,96.5z M73.8,96.7
		c0,0.7,0.2,1.3,0.5,1.7s0.8,0.6,1.3,0.6c0.6,0,1-0.2,1.3-0.6s0.5-1,0.5-1.8c0-0.7-0.2-1.3-0.5-1.7s-0.8-0.6-1.3-0.6
		c-0.5,0-1,0.2-1.3,0.6S73.8,95.9,73.8,96.7z"/>
	<path class="st2" d="M80.9,93.4l0,0.8c0.5-0.6,1.1-0.9,1.9-0.9c1.3,0,2,0.8,2,2.3v4.2h-1.1v-4.2c0-0.5-0.1-0.8-0.3-1
		s-0.5-0.3-1-0.3c-0.4,0-0.7,0.1-0.9,0.3s-0.5,0.4-0.6,0.7v4.5h-1.1v-6.3H80.9z"/>
	<path class="st2" d="M89.6,95.2H92v1h-2.4v2.7h-1.1v-2.7h-2.4v-1h2.4v-2.5h1.1V95.2z"/>
	<path class="st2" d="M100.2,99.8c-0.1-0.1-0.1-0.3-0.2-0.7c-0.5,0.5-1.1,0.8-1.8,0.8c-0.6,0-1.1-0.2-1.5-0.5s-0.6-0.8-0.6-1.3
		c0-0.7,0.3-1.2,0.8-1.5s1.2-0.5,2.1-0.5h1.1v-0.5c0-0.4-0.1-0.7-0.3-0.9s-0.6-0.3-1-0.3c-0.4,0-0.7,0.1-1,0.3s-0.4,0.4-0.4,0.7
		h-1.1c0-0.3,0.1-0.6,0.3-0.9s0.5-0.5,0.9-0.7s0.8-0.3,1.3-0.3c0.7,0,1.3,0.2,1.7,0.5s0.6,0.9,0.6,1.5v2.9c0,0.6,0.1,1,0.2,1.4v0.1
		H100.2z M98.4,98.9c0.3,0,0.7-0.1,1-0.3s0.5-0.4,0.7-0.7v-1.3h-0.8c-1.3,0-2,0.4-2,1.2c0,0.3,0.1,0.6,0.3,0.8S98,98.9,98.4,98.9z"
		/>
	<path class="st2" d="M103.8,93.4l0,0.8c0.5-0.6,1.1-0.9,1.9-0.9c1.3,0,2,0.8,2,2.3v4.2h-1.1v-4.2c0-0.5-0.1-0.8-0.3-1
		s-0.5-0.3-1-0.3c-0.4,0-0.7,0.1-0.9,0.3s-0.5,0.4-0.6,0.7v4.5h-1.1v-6.3H103.8z"/>
	<path class="st2" d="M110.4,93.4l0,0.8c0.5-0.6,1.1-0.9,1.9-0.9c1.3,0,2,0.8,2,2.3v4.2h-1.1v-4.2c0-0.5-0.1-0.8-0.3-1
		s-0.5-0.3-1-0.3c-0.4,0-0.7,0.1-0.9,0.3s-0.5,0.4-0.6,0.7v4.5h-1.1v-6.3H110.4z"/>
	<path class="st2" d="M119.9,99.1c-0.4,0.5-1,0.7-1.9,0.7c-0.7,0-1.2-0.2-1.5-0.6s-0.5-1-0.5-1.7v-4.1h1.1v4.1c0,1,0.4,1.4,1.2,1.4
		c0.8,0,1.4-0.3,1.7-0.9v-4.6h1.1v6.3h-1L119.9,99.1z"/>
	<path class="st2" d="M126.6,99.8c-0.1-0.1-0.1-0.3-0.2-0.7c-0.5,0.5-1.1,0.8-1.8,0.8c-0.6,0-1.1-0.2-1.5-0.5s-0.6-0.8-0.6-1.3
		c0-0.7,0.3-1.2,0.8-1.5s1.2-0.5,2.1-0.5h1.1v-0.5c0-0.4-0.1-0.7-0.3-0.9s-0.6-0.3-1-0.3c-0.4,0-0.7,0.1-1,0.3s-0.4,0.4-0.4,0.7
		h-1.1c0-0.3,0.1-0.6,0.3-0.9s0.5-0.5,0.9-0.7s0.8-0.3,1.3-0.3c0.7,0,1.3,0.2,1.7,0.5s0.6,0.9,0.6,1.5v2.9c0,0.6,0.1,1,0.2,1.4v0.1
		H126.6z M124.8,98.9c0.3,0,0.7-0.1,1-0.3s0.5-0.4,0.7-0.7v-1.3h-0.8c-1.3,0-2,0.4-2,1.2c0,0.3,0.1,0.6,0.3,0.8
		S124.4,98.9,124.8,98.9z"/>
	<path class="st2" d="M130.3,99.8h-1.1v-9h1.1V99.8z"/>
	<path class="st2" d="M138.1,94.4c-0.2,0-0.3,0-0.5,0c-0.7,0-1.2,0.3-1.4,0.9v4.5h-1.1v-6.3h1.1l0,0.7c0.4-0.6,0.9-0.8,1.5-0.8
		c0.2,0,0.4,0,0.5,0.1V94.4z"/>
	<path class="st2" d="M141.6,99.9c-0.9,0-1.6-0.3-2.1-0.8s-0.8-1.3-0.8-2.3v-0.2c0-0.6,0.1-1.2,0.4-1.7s0.6-0.9,1-1.2
		s0.9-0.4,1.4-0.4c0.8,0,1.5,0.3,1.9,0.8s0.7,1.3,0.7,2.3v0.5h-4.3c0,0.6,0.2,1.1,0.5,1.5s0.8,0.6,1.3,0.6c0.4,0,0.7-0.1,1-0.2
		s0.5-0.4,0.7-0.6l0.7,0.5C143.5,99.5,142.7,99.9,141.6,99.9z M141.5,94.2c-0.4,0-0.8,0.2-1.1,0.5s-0.5,0.8-0.6,1.3h3.2v-0.1
		c0-0.6-0.2-1-0.4-1.3S142,94.2,141.5,94.2z"/>
	<path class="st2" d="M147.4,98.3l1.6-4.9h1.1l-2.3,6.3H147l-2.3-6.3h1.1L147.4,98.3z"/>
	<path class="st2" d="M153.7,99.9c-0.9,0-1.6-0.3-2.1-0.8s-0.8-1.3-0.8-2.3v-0.2c0-0.6,0.1-1.2,0.4-1.7s0.6-0.9,1-1.2
		s0.9-0.4,1.4-0.4c0.8,0,1.5,0.3,1.9,0.8s0.7,1.3,0.7,2.3v0.5h-4.3c0,0.6,0.2,1.1,0.5,1.5s0.8,0.6,1.3,0.6c0.4,0,0.7-0.1,1-0.2
		s0.5-0.4,0.7-0.6l0.7,0.5C155.5,99.5,154.7,99.9,153.7,99.9z M153.5,94.2c-0.4,0-0.8,0.2-1.1,0.5s-0.5,0.8-0.6,1.3h3.2v-0.1
		c0-0.6-0.2-1-0.4-1.3S154,94.2,153.5,94.2z"/>
	<path class="st2" d="M158.4,93.4l0,0.8c0.5-0.6,1.1-0.9,1.9-0.9c1.3,0,2,0.8,2,2.3v4.2h-1.1v-4.2c0-0.5-0.1-0.8-0.3-1
		s-0.5-0.3-1-0.3c-0.4,0-0.7,0.1-0.9,0.3s-0.5,0.4-0.6,0.7v4.5h-1.1v-6.3H158.4z"/>
	<path class="st2" d="M167.9,99.1c-0.4,0.5-1,0.7-1.9,0.7c-0.7,0-1.2-0.2-1.5-0.6s-0.5-1-0.5-1.7v-4.1h1.1v4.1c0,1,0.4,1.4,1.2,1.4
		c0.8,0,1.4-0.3,1.7-0.9v-4.6h1.1v6.3h-1L167.9,99.1z"/>
	<path class="st2" d="M173.2,99.9c-0.9,0-1.6-0.3-2.1-0.8s-0.8-1.3-0.8-2.3v-0.2c0-0.6,0.1-1.2,0.4-1.7s0.6-0.9,1-1.2
		s0.9-0.4,1.4-0.4c0.8,0,1.5,0.3,1.9,0.8s0.7,1.3,0.7,2.3v0.5h-4.3c0,0.6,0.2,1.1,0.5,1.5s0.8,0.6,1.3,0.6c0.4,0,0.7-0.1,1-0.2
		s0.5-0.4,0.7-0.6l0.7,0.5C175.1,99.5,174.3,99.9,173.2,99.9z M173.1,94.2c-0.4,0-0.8,0.2-1.1,0.5s-0.5,0.8-0.6,1.3h3.2v-0.1
		c0-0.6-0.2-1-0.4-1.3S173.6,94.2,173.1,94.2z"/>
</g>
</svg>
