<?xml version="1.0" encoding="utf-8"?>
<!-- Generator: Adobe Illustrator 22.1.0, SVG Export Plug-In . SVG Version: 6.00 Build 0)  -->
<svg version="1.1" id="Layer_1" xmlns="http://www.w3.org/2000/svg" xmlns:xlink="http://www.w3.org/1999/xlink" x="0px" y="0px"
	 viewBox="0 0 209.3 113.4" style="enable-background:new 0 0 209.3 113.4;" xml:space="preserve">
<style type="text/css">
	.st0{fill:none;stroke:#F1F2F2;stroke-width:0.75;stroke-linecap:round;stroke-miterlimit:10;stroke-dasharray:1.006,3.017;}
	.st1{fill:none;stroke:#F1F2F2;stroke-width:0.75;stroke-linecap:round;stroke-miterlimit:10;}
	.st2{fill:#FFFFFF;}
	.st3{fill:none;stroke:url(#SVGID_1_);stroke-width:7;stroke-linecap:round;stroke-miterlimit:10;}
</style>
<g>
	<g>
		<path class="st0" d="M132.6,36.8C131,50,120.1,60.4,106.7,61.4"/>
	</g>
	<g>
		<path class="st0" d="M101.1,61.2c-13.2-1.6-23.6-12.5-24.6-25.9"/>
	</g>
	<g>
		<path class="st0" d="M76.7,29.7c1.6-13.2,12.5-23.6,25.9-24.6"/>
	</g>
	<g>
		<path class="st0" d="M108.1,5.3c13.2,1.6,23.6,12.5,24.6,25.9"/>
	</g>
	<g>
		<path class="st1" d="M132.8,32.7c0,0.2,0,0.3,0,0.5s0,0.3,0,0.5 M104.1,5.1c0.2,0,0.3,0,0.5,0s0.3,0,0.5,0 M76.5,33.8
			c0-0.2,0-0.3,0-0.5s0-0.3,0-0.5 M105.1,61.4c-0.2,0-0.3,0-0.5,0s-0.3,0-0.5,0"/>
	</g>
</g>
<g>
	<path class="st2" d="M96.6,26.2v2.1h-0.2c-1.1,0-2.1,0.3-2.8,0.9s-1.1,1.4-1.3,2.4c0.7-0.7,1.5-1,2.6-1s2,0.4,2.7,1.2
		c0.7,0.8,1,1.8,1,3.1c0,0.8-0.2,1.6-0.5,2.3s-0.9,1.2-1.5,1.6s-1.5,0.5-2.3,0.5c-1.3,0-2.4-0.5-3.3-1.4s-1.2-2.2-1.2-3.8v-0.8
		c0-1.4,0.3-2.6,0.8-3.7c0.5-1.1,1.3-1.9,2.3-2.5s2.1-0.9,3.4-0.9C96.3,26.2,96.6,26.2,96.6,26.2z M94.2,32.6
		c-0.4,0-0.8,0.1-1.1,0.3c-0.3,0.2-0.6,0.5-0.7,0.8v0.8c0,0.8,0.2,1.5,0.5,2s0.8,0.7,1.4,0.7c0.5,0,1-0.2,1.3-0.6s0.5-1,0.5-1.7
		s-0.2-1.3-0.5-1.7S94.7,32.6,94.2,32.6z"/>
	<path class="st2" d="M107,26.2v2.1h-0.2c-1.1,0-2.1,0.3-2.8,0.9s-1.1,1.4-1.3,2.4c0.7-0.7,1.5-1,2.6-1s2,0.4,2.7,1.2
		c0.7,0.8,1,1.8,1,3.1c0,0.8-0.2,1.6-0.5,2.3s-0.9,1.2-1.5,1.6s-1.4,0.6-2.2,0.6c-1.3,0-2.4-0.5-3.3-1.4s-1.2-2.2-1.2-3.8v-0.9
		c0-1.4,0.3-2.6,0.8-3.7c0.5-1.1,1.3-1.9,2.3-2.5s2.1-0.9,3.4-0.9C106.8,26.2,107,26.2,107,26.2z M104.5,32.6
		c-0.4,0-0.8,0.1-1.1,0.3c-0.3,0.2-0.6,0.5-0.7,0.8v0.8c0,0.8,0.2,1.5,0.5,2s0.8,0.7,1.4,0.7c0.5,0,1-0.2,1.3-0.6s0.5-1,0.5-1.7
		s-0.2-1.3-0.5-1.7S105.1,32.6,104.5,32.6z"/>
	<path class="st2" d="M110.4,28.8c0-0.8,0.3-1.4,0.8-1.9s1.2-0.7,2-0.7s1.5,0.2,2,0.7s0.8,1.1,0.8,2v0.6c0,0.8-0.3,1.4-0.8,1.9
		s-1.2,0.7-2,0.7s-1.5-0.2-2-0.7s-0.8-1.1-0.8-2V28.8z M112.1,29.5c0,0.4,0.1,0.6,0.3,0.9c0.2,0.2,0.5,0.3,0.8,0.3s0.6-0.1,0.8-0.3
		s0.3-0.5,0.3-0.9v-0.7c0-0.4-0.1-0.6-0.3-0.9s-0.5-0.3-0.8-0.3s-0.6,0.1-0.8,0.3c-0.2,0.2-0.3,0.5-0.3,0.9V29.5z M113.7,38.2
		l-1.2-0.7l6.2-10l1.2,0.7L113.7,38.2z M116.5,36c0-0.8,0.3-1.4,0.8-1.9s1.2-0.7,2-0.7s1.5,0.2,2,0.7s0.8,1.1,0.8,2v0.6
		c0,0.8-0.3,1.4-0.8,1.9s-1.2,0.7-2,0.7s-1.5-0.2-2-0.7s-0.8-1.1-0.8-1.9V36z M118.2,36.7c0,0.3,0.1,0.6,0.3,0.8s0.5,0.3,0.8,0.3
		c0.7,0,1.1-0.4,1.1-1.2v-0.7c0-0.4-0.1-0.6-0.3-0.9c-0.2-0.2-0.5-0.3-0.8-0.3s-0.6,0.1-0.8,0.3c-0.2,0.2-0.3,0.5-0.3,0.9
		C118.2,35.9,118.2,36.7,118.2,36.7z"/>
</g>
<g>
	<g>
		
			<linearGradient id="SVGID_1_" gradientUnits="userSpaceOnUse" x1="77.5" y1="81.42" x2="135.9" y2="81.42" gradientTransform="matrix(1 0 0 -1 0 114.64)">
			<stop  offset="0" style="stop-color:#FFC709"/>
			<stop  offset="1" style="stop-color:#EF4136"/>
		</linearGradient>
		<path class="st3" d="M104.4,5.2c15.4,0,28,12.5,28,28s-12.5,28-28,28c-9.9,0-18.1-4.4-23.4-12.7"/>
	</g>
</g>
<g>
	<path class="st2" d="M8.4,84.3H7.3v-7.2l-2.2,0.8v-1l3.1-1.2h0.2V84.3z"/>
	<path class="st2" d="M16.9,80.7c0,1.3-0.2,2.2-0.7,2.8s-1.1,0.9-2,0.9c-0.9,0-1.6-0.3-2-0.9s-0.7-1.5-0.7-2.7v-1.4
		c0-1.3,0.2-2.2,0.7-2.8s1.1-0.9,2-0.9c0.9,0,1.6,0.3,2,0.9s0.7,1.5,0.7,2.7V80.7z M15.8,79.2c0-0.9-0.1-1.6-0.4-2s-0.7-0.6-1.2-0.6
		c-0.6,0-1,0.2-1.2,0.6s-0.4,1.1-0.4,1.9v1.7c0,0.9,0.1,1.6,0.4,2s0.7,0.7,1.2,0.7c0.5,0,0.9-0.2,1.2-0.6s0.4-1.1,0.4-2V79.2z"/>
	<path class="st2" d="M21.5,79.7h2.4v1h-2.4v2.7h-1.1v-2.7H18v-1h2.4v-2.5h1.1V79.7z"/>
	<path class="st2" d="M30.3,82.7l1.5-4.8h1.2l-2.5,7.3c-0.4,1.1-1,1.6-1.9,1.6l-0.2,0l-0.4-0.1v-0.9l0.3,0c0.4,0,0.7-0.1,0.9-0.2
		s0.4-0.4,0.5-0.8l0.2-0.6L27.5,78h1.2L30.3,82.7z"/>
	<path class="st2" d="M36.4,84.4c-0.9,0-1.6-0.3-2.1-0.8s-0.8-1.3-0.8-2.3v-0.2c0-0.6,0.1-1.2,0.4-1.7s0.6-0.9,1-1.2
		s0.9-0.4,1.4-0.4c0.8,0,1.5,0.3,1.9,0.8s0.7,1.3,0.7,2.3v0.5h-4.3c0,0.6,0.2,1.1,0.5,1.5s0.8,0.6,1.3,0.6c0.4,0,0.7-0.1,1-0.2
		s0.5-0.4,0.7-0.6l0.7,0.5C38.3,84,37.5,84.4,36.4,84.4z M36.3,78.7c-0.4,0-0.8,0.2-1.1,0.5s-0.5,0.8-0.6,1.3h3.2v-0.1
		c0-0.6-0.2-1-0.4-1.3S36.7,78.7,36.3,78.7z"/>
	<path class="st2" d="M44,84.3c-0.1-0.1-0.1-0.3-0.2-0.7c-0.5,0.5-1.1,0.8-1.8,0.8c-0.6,0-1.1-0.2-1.5-0.5S40,83.1,40,82.6
		c0-0.7,0.3-1.2,0.8-1.5s1.2-0.5,2.1-0.5h1.1V80c0-0.4-0.1-0.7-0.3-0.9s-0.6-0.3-1-0.3c-0.4,0-0.7,0.1-1,0.3s-0.4,0.4-0.4,0.7h-1.1
		c0-0.3,0.1-0.6,0.3-0.9s0.5-0.5,0.9-0.7s0.8-0.3,1.3-0.3c0.7,0,1.3,0.2,1.7,0.5s0.6,0.9,0.6,1.5v2.9c0,0.6,0.1,1,0.2,1.4v0.1H44z
		 M42.3,83.5c0.3,0,0.7-0.1,1-0.3s0.5-0.4,0.7-0.7v-1.3H43c-1.3,0-2,0.4-2,1.2c0,0.3,0.1,0.6,0.3,0.8S41.9,83.5,42.3,83.5z"/>
	<path class="st2" d="M49.7,78.9c-0.2,0-0.3,0-0.5,0c-0.7,0-1.2,0.3-1.4,0.9v4.5h-1.1V78h1.1l0,0.7c0.4-0.6,0.9-0.8,1.5-0.8
		c0.2,0,0.4,0,0.5,0.1V78.9z"/>
	<path class="st2" d="M54.4,82.6c0-0.3-0.1-0.5-0.3-0.7s-0.6-0.3-1.2-0.4s-1-0.3-1.3-0.4s-0.6-0.4-0.7-0.6s-0.2-0.5-0.2-0.8
		c0-0.5,0.2-1,0.7-1.3s1-0.5,1.7-0.5c0.7,0,1.3,0.2,1.7,0.6s0.7,0.8,0.7,1.4h-1.1c0-0.3-0.1-0.6-0.4-0.8s-0.6-0.3-1-0.3
		c-0.4,0-0.7,0.1-0.9,0.3s-0.3,0.4-0.3,0.7c0,0.3,0.1,0.5,0.3,0.6s0.6,0.3,1.1,0.4s1,0.3,1.3,0.4s0.6,0.4,0.7,0.6s0.2,0.5,0.2,0.9
		c0,0.6-0.2,1-0.7,1.4s-1,0.5-1.8,0.5c-0.5,0-1-0.1-1.3-0.3s-0.7-0.4-0.9-0.8s-0.3-0.7-0.3-1h1.1c0,0.4,0.2,0.7,0.4,0.9
		s0.6,0.3,1.1,0.3c0.4,0,0.7-0.1,1-0.2S54.4,82.9,54.4,82.6z"/>
	<path class="st2" d="M65.5,82.8l1.2-4.8h1.1L66,84.3h-0.9l-1.5-4.8L62,84.3h-0.9L59.3,78h1.1l1.2,4.7l1.5-4.7H64L65.5,82.8z"/>
	<path class="st2" d="M68.6,81.1c0-0.6,0.1-1.2,0.4-1.7s0.6-0.9,1-1.1s0.9-0.4,1.5-0.4c0.9,0,1.6,0.3,2.1,0.9s0.8,1.4,0.8,2.4v0.1
		c0,0.6-0.1,1.2-0.4,1.7s-0.6,0.9-1,1.1s-0.9,0.4-1.5,0.4c-0.9,0-1.6-0.3-2.1-0.9S68.6,82.1,68.6,81.1L68.6,81.1z M69.7,81.2
		c0,0.7,0.2,1.3,0.5,1.7s0.8,0.6,1.3,0.6c0.6,0,1-0.2,1.3-0.6s0.5-1,0.5-1.8c0-0.7-0.2-1.3-0.5-1.7s-0.8-0.6-1.3-0.6
		c-0.5,0-1,0.2-1.3,0.6S69.7,80.4,69.7,81.2z"/>
	<path class="st2" d="M78.8,78.9c-0.2,0-0.3,0-0.5,0c-0.7,0-1.2,0.3-1.4,0.9v4.5h-1.1V78h1.1l0,0.7c0.4-0.6,0.9-0.8,1.5-0.8
		c0.2,0,0.4,0,0.5,0.1V78.9z"/>
	<path class="st2" d="M81.6,81.4l-0.7,0.7v2.2h-1.1v-9h1.1v5.4l0.6-0.7l2-2.1h1.3l-2.5,2.6l2.8,3.7h-1.3L81.6,81.4z"/>
	<path class="st2" d="M85.9,76.3c0-0.2,0.1-0.3,0.2-0.4s0.3-0.2,0.5-0.2s0.4,0.1,0.5,0.2s0.2,0.3,0.2,0.4s-0.1,0.3-0.2,0.4
		s-0.3,0.2-0.5,0.2s-0.4-0.1-0.5-0.2S85.9,76.5,85.9,76.3z M87.1,84.3H86V78h1.1V84.3z"/>
	<path class="st2" d="M89.8,78l0,0.8c0.5-0.6,1.1-0.9,1.9-0.9c1.3,0,2,0.8,2,2.3v4.2h-1.1v-4.2c0-0.5-0.1-0.8-0.3-1s-0.5-0.3-1-0.3
		c-0.4,0-0.7,0.1-0.9,0.3s-0.5,0.4-0.6,0.7v4.5h-1.1V78H89.8z"/>
	<path class="st2" d="M95.2,81.1c0-1,0.2-1.8,0.7-2.4s1.1-0.9,1.8-0.9c0.8,0,1.4,0.3,1.8,0.8l0.1-0.7h1v6.2c0,0.8-0.2,1.5-0.7,1.9
		s-1.1,0.7-2,0.7c-0.5,0-0.9-0.1-1.3-0.3s-0.8-0.5-1-0.8l0.6-0.7c0.5,0.6,1,0.9,1.7,0.9c0.5,0,0.9-0.1,1.2-0.4s0.4-0.7,0.4-1.3v-0.5
		c-0.4,0.5-1,0.8-1.8,0.8c-0.7,0-1.3-0.3-1.8-0.9S95.2,82.1,95.2,81.1z M96.3,81.2c0,0.7,0.1,1.3,0.4,1.7s0.7,0.6,1.2,0.6
		c0.7,0,1.2-0.3,1.5-0.9v-2.9c-0.3-0.6-0.8-0.9-1.5-0.9c-0.5,0-0.9,0.2-1.2,0.6S96.3,80.4,96.3,81.2z"/>
	<path class="st2" d="M110.7,82.8L112,78h1.1l-1.8,6.3h-0.9l-1.5-4.8l-1.5,4.8h-0.9l-1.8-6.3h1.1l1.2,4.7l1.5-4.7h0.9L110.7,82.8z"
		/>
	<path class="st2" d="M114.1,76.3c0-0.2,0.1-0.3,0.2-0.4s0.3-0.2,0.5-0.2s0.4,0.1,0.5,0.2s0.2,0.3,0.2,0.4s-0.1,0.3-0.2,0.4
		s-0.3,0.2-0.5,0.2s-0.4-0.1-0.5-0.2S114.1,76.5,114.1,76.3z M115.3,84.3h-1.1V78h1.1V84.3z"/>
	<path class="st2" d="M118.5,76.4V78h1.2v0.8h-1.2v3.9c0,0.3,0.1,0.4,0.2,0.6s0.3,0.2,0.5,0.2c0.1,0,0.3,0,0.5-0.1v0.9
		c-0.3,0.1-0.6,0.1-0.8,0.1c-0.5,0-0.8-0.1-1.1-0.4s-0.4-0.7-0.4-1.2v-3.9h-1.2V78h1.2v-1.5H118.5z"/>
	<path class="st2" d="M122.1,78.7c0.5-0.6,1.1-0.9,1.9-0.9c1.3,0,2,0.8,2,2.3v4.2h-1.1v-4.2c0-0.5-0.1-0.8-0.3-1s-0.5-0.3-1-0.3
		c-0.4,0-0.7,0.1-0.9,0.3s-0.5,0.4-0.6,0.7v4.5H121v-9h1.1V78.7z"/>
	<path class="st2" d="M133.2,80.5c-1-0.3-1.7-0.6-2.1-1s-0.7-0.9-0.7-1.5c0-0.7,0.3-1.2,0.8-1.7s1.2-0.7,2.1-0.7
		c0.6,0,1.1,0.1,1.6,0.3s0.8,0.5,1.1,0.9s0.4,0.8,0.4,1.3h-1.1c0-0.5-0.2-0.9-0.5-1.2s-0.8-0.4-1.4-0.4c-0.6,0-1,0.1-1.3,0.4
		c-0.3,0.2-0.5,0.6-0.5,1c0,0.3,0.1,0.6,0.4,0.9c0.3,0.2,0.8,0.5,1.5,0.7c0.7,0.2,1.3,0.4,1.7,0.7s0.7,0.5,0.9,0.8s0.3,0.7,0.3,1.1
		c0,0.7-0.3,1.2-0.8,1.7s-1.3,0.6-2.2,0.6c-0.6,0-1.1-0.1-1.6-0.3s-0.9-0.5-1.2-0.9s-0.4-0.8-0.4-1.3h1.1c0,0.5,0.2,0.9,0.6,1.2
		s0.9,0.4,1.5,0.4c0.6,0,1-0.1,1.4-0.4s0.5-0.6,0.5-1s-0.1-0.7-0.4-1S134,80.7,133.2,80.5z"/>
	<path class="st2" d="M142.6,82.1H139l-0.8,2.2H137l3.3-8.5h1l3.3,8.5h-1.2L142.6,82.1z M139.3,81.2h2.9l-1.5-4L139.3,81.2z"/>
	<path class="st2" d="M146.8,81v3.3h-1.1v-8.5h3.1c0.9,0,1.7,0.2,2.2,0.7s0.8,1.1,0.8,1.9c0,0.8-0.3,1.5-0.8,1.9s-1.3,0.7-2.2,0.7
		H146.8z M146.8,80.1h2c0.6,0,1.1-0.1,1.4-0.4c0.3-0.3,0.5-0.7,0.5-1.2c0-0.5-0.2-0.9-0.5-1.2c-0.3-0.3-0.8-0.5-1.3-0.5h-2.1V80.1z"
		/>
	<path class="st2" d="M158.7,80.5c-1-0.3-1.7-0.6-2.1-1S156,78.6,156,78c0-0.7,0.3-1.2,0.8-1.7s1.2-0.7,2.1-0.7
		c0.6,0,1.1,0.1,1.6,0.3s0.8,0.5,1.1,0.9s0.4,0.8,0.4,1.3h-1.1c0-0.5-0.2-0.9-0.5-1.2s-0.8-0.4-1.4-0.4c-0.6,0-1,0.1-1.3,0.4
		c-0.3,0.2-0.5,0.6-0.5,1c0,0.3,0.1,0.6,0.4,0.9c0.3,0.2,0.8,0.5,1.5,0.7c0.7,0.2,1.3,0.4,1.7,0.7s0.7,0.5,0.9,0.8s0.3,0.7,0.3,1.1
		c0,0.7-0.3,1.2-0.8,1.7s-1.3,0.6-2.2,0.6c-0.6,0-1.1-0.1-1.6-0.3s-0.9-0.5-1.2-0.9s-0.4-0.8-0.4-1.3h1.1c0,0.5,0.2,0.9,0.6,1.2
		s0.9,0.4,1.5,0.4c0.6,0,1-0.1,1.4-0.4s0.5-0.6,0.5-1s-0.1-0.7-0.4-1S159.5,80.7,158.7,80.5z"/>
	<path class="st2" d="M162.9,81.1c0-0.6,0.1-1.2,0.4-1.7s0.6-0.9,1-1.1s0.9-0.4,1.5-0.4c0.9,0,1.6,0.3,2.1,0.9s0.8,1.4,0.8,2.4v0.1
		c0,0.6-0.1,1.2-0.4,1.7s-0.6,0.9-1,1.1s-0.9,0.4-1.5,0.4c-0.9,0-1.6-0.3-2.1-0.9S162.9,82.1,162.9,81.1L162.9,81.1z M164,81.2
		c0,0.7,0.2,1.3,0.5,1.7s0.8,0.6,1.3,0.6c0.6,0,1-0.2,1.3-0.6s0.5-1,0.5-1.8c0-0.7-0.2-1.3-0.5-1.7s-0.8-0.6-1.3-0.6
		c-0.5,0-1,0.2-1.3,0.6S164,80.4,164,81.2z"/>
	<path class="st2" d="M171.2,84.3h-1.1v-9h1.1V84.3z"/>
	<path class="st2" d="M176.8,83.7c-0.4,0.5-1,0.7-1.9,0.7c-0.7,0-1.2-0.2-1.5-0.6s-0.5-1-0.5-1.7V78h1.1v4.1c0,1,0.4,1.4,1.2,1.4
		c0.8,0,1.4-0.3,1.7-0.9V78h1.1v6.3h-1L176.8,83.7z"/>
	<path class="st2" d="M181,76.4V78h1.2v0.8H181v3.9c0,0.3,0.1,0.4,0.2,0.6s0.3,0.2,0.5,0.2c0.1,0,0.3,0,0.5-0.1v0.9
		c-0.3,0.1-0.6,0.1-0.8,0.1c-0.5,0-0.8-0.1-1.1-0.4s-0.4-0.7-0.4-1.2v-3.9h-1.2V78h1.2v-1.5H181z"/>
	<path class="st2" d="M183.5,76.3c0-0.2,0.1-0.3,0.2-0.4s0.3-0.2,0.5-0.2s0.4,0.1,0.5,0.2s0.2,0.3,0.2,0.4s-0.1,0.3-0.2,0.4
		s-0.3,0.2-0.5,0.2s-0.4-0.1-0.5-0.2S183.5,76.5,183.5,76.3z M184.6,84.3h-1.1V78h1.1V84.3z"/>
	<path class="st2" d="M186.1,81.1c0-0.6,0.1-1.2,0.4-1.7s0.6-0.9,1-1.1s0.9-0.4,1.5-0.4c0.9,0,1.6,0.3,2.1,0.9s0.8,1.4,0.8,2.4v0.1
		c0,0.6-0.1,1.2-0.4,1.7s-0.6,0.9-1,1.1s-0.9,0.4-1.5,0.4c-0.9,0-1.6-0.3-2.1-0.9S186.1,82.1,186.1,81.1L186.1,81.1z M187.2,81.2
		c0,0.7,0.2,1.3,0.5,1.7s0.8,0.6,1.3,0.6c0.6,0,1-0.2,1.3-0.6s0.5-1,0.5-1.8c0-0.7-0.2-1.3-0.5-1.7s-0.8-0.6-1.3-0.6
		c-0.5,0-1,0.2-1.3,0.6S187.2,80.4,187.2,81.2z"/>
	<path class="st2" d="M194.2,78l0,0.8c0.5-0.6,1.1-0.9,1.9-0.9c1.3,0,2,0.8,2,2.3v4.2h-1.1v-4.2c0-0.5-0.1-0.8-0.3-1s-0.5-0.3-1-0.3
		c-0.4,0-0.7,0.1-0.9,0.3s-0.5,0.4-0.6,0.7v4.5h-1.1V78H194.2z"/>
	<path class="st2" d="M203.5,82.6c0-0.3-0.1-0.5-0.3-0.7s-0.6-0.3-1.2-0.4s-1-0.3-1.3-0.4s-0.6-0.4-0.7-0.6s-0.2-0.5-0.2-0.8
		c0-0.5,0.2-1,0.7-1.3s1-0.5,1.7-0.5c0.7,0,1.3,0.2,1.7,0.6s0.7,0.8,0.7,1.4h-1.1c0-0.3-0.1-0.6-0.4-0.8s-0.6-0.3-1-0.3
		c-0.4,0-0.7,0.1-0.9,0.3s-0.3,0.4-0.3,0.7c0,0.3,0.1,0.5,0.3,0.6s0.6,0.3,1.1,0.4s1,0.3,1.3,0.4s0.6,0.4,0.7,0.6s0.2,0.5,0.2,0.9
		c0,0.6-0.2,1-0.7,1.4s-1,0.5-1.8,0.5c-0.5,0-1-0.1-1.3-0.3s-0.7-0.4-0.9-0.8s-0.3-0.7-0.3-1h1.1c0,0.4,0.2,0.7,0.4,0.9
		s0.6,0.3,1.1,0.3c0.4,0,0.7-0.1,1-0.2S203.5,82.9,203.5,82.6z"/>
</g>
</svg>
