<?xml version="1.0" encoding="utf-8"?>
<!-- Generator: Adobe Illustrator 22.1.0, SVG Export Plug-In . SVG Version: 6.00 Build 0)  -->
<svg version="1.1" id="Layer_1" xmlns="http://www.w3.org/2000/svg" xmlns:xlink="http://www.w3.org/1999/xlink" x="0px" y="0px"
	 viewBox="0 0 209.3 113.4" style="enable-background:new 0 0 209.3 113.4;" xml:space="preserve">
<style type="text/css">
	.st0{fill:none;stroke:#F1F2F2;stroke-width:0.75;stroke-linecap:round;stroke-miterlimit:10;stroke-dasharray:1.006,3.017;}
	.st1{fill:none;stroke:#F1F2F2;stroke-width:0.75;stroke-linecap:round;stroke-miterlimit:10;}
	.st2{fill:none;stroke:url(#SVGID_1_);stroke-width:7;stroke-linecap:round;stroke-miterlimit:10;}
	.st3{fill:#FFFFFF;}
</style>
<g>
	<g>
		<path class="st0" d="M133.5,36.1c-1.6,13.2-12.5,23.6-25.9,24.6"/>
	</g>
	<g>
		<path class="st0" d="M102,60.5C88.8,58.9,78.4,48,77.4,34.6"/>
	</g>
	<g>
		<path class="st0" d="M77.6,29c1.6-13.2,12.5-23.6,25.9-24.6"/>
	</g>
	<g>
		<path class="st0" d="M109,4.6c13.2,1.6,23.6,12.5,24.6,25.9"/>
	</g>
	<g>
		<path class="st1" d="M133.7,32c0,0.2,0,0.3,0,0.5s0,0.3,0,0.5 M105,4.4c0.2,0,0.3,0,0.5,0s0.3,0,0.5,0 M77.4,33.1
			c0-0.2,0-0.3,0-0.5s0-0.3,0-0.5 M106,60.7c-0.2,0-0.3,0-0.5,0s-0.3,0-0.5,0"/>
	</g>
</g>
<g>
	<g>
		<g>
			<linearGradient id="SVGID_1_" gradientUnits="userSpaceOnUse" x1="75.7065" y1="32.2314" x2="136.6239" y2="32.2314">
				<stop  offset="0" style="stop-color:#FFC709"/>
				<stop  offset="1" style="stop-color:#EF4136"/>
			</linearGradient>
			<path class="st2" d="M105.1,4.3c15.5,0,28,12.5,28,28s-12.5,28-28,28c-11.7,0-21.5-6.6-25.9-17.5"/>
		</g>
	</g>
</g>
<g>
	<g>
	</g>
	<g>
	</g>
</g>
<g>
	<path class="st3" d="M96.7,25.4v2.2h-0.3c-1.2,0-2.2,0.3-2.9,0.9c-0.7,0.6-1.2,1.5-1.3,2.5c0.7-0.7,1.6-1.1,2.7-1.1
		c1.2,0,2.1,0.4,2.8,1.3c0.7,0.8,1,1.9,1,3.3c0,0.9-0.2,1.7-0.6,2.4c-0.4,0.7-0.9,1.3-1.6,1.7c-0.7,0.4-1.5,0.6-2.3,0.6
		c-1.4,0-2.6-0.5-3.4-1.5c-0.9-1-1.3-2.3-1.3-3.9v-1c0-1.5,0.3-2.7,0.8-3.9c0.6-1.1,1.3-2,2.4-2.6s2.2-0.9,3.6-0.9H96.7z M94.1,32.1
		c-0.4,0-0.8,0.1-1.2,0.3c-0.4,0.2-0.6,0.5-0.8,0.9v0.8c0,0.9,0.2,1.6,0.5,2.1c0.4,0.5,0.8,0.7,1.5,0.7c0.6,0,1-0.2,1.4-0.7
		s0.5-1,0.5-1.8c0-0.7-0.2-1.3-0.5-1.8C95.1,32.3,94.7,32.1,94.1,32.1z"/>
	<path class="st3" d="M106.5,33.6c-0.7,0.7-1.5,1-2.4,1c-1.2,0-2.1-0.4-2.8-1.2c-0.7-0.8-1.1-1.9-1.1-3.3c0-0.9,0.2-1.7,0.6-2.4
		c0.4-0.7,0.9-1.3,1.6-1.7c0.7-0.4,1.5-0.6,2.3-0.6c0.9,0,1.7,0.2,2.4,0.7s1.2,1.1,1.6,1.9s0.6,1.8,0.6,2.8v1c0,2.2-0.6,4-1.7,5.3
		s-2.7,2-4.7,2l-0.7,0v-2.2l0.6,0C105,36.7,106.3,35.7,106.5,33.6z M104.7,32.6c0.4,0,0.8-0.1,1.1-0.3c0.3-0.2,0.5-0.5,0.7-0.8v-1.1
		c0-0.9-0.2-1.6-0.5-2.1c-0.3-0.5-0.8-0.7-1.4-0.7c-0.5,0-1,0.2-1.3,0.7c-0.3,0.5-0.5,1.1-0.5,1.8c0,0.7,0.2,1.3,0.5,1.8
		C103.6,32.3,104.1,32.6,104.7,32.6z"/>
	<path class="st3" d="M111.1,28.1c0-0.8,0.3-1.5,0.8-2c0.5-0.5,1.2-0.8,2.1-0.8c0.9,0,1.6,0.3,2.1,0.8c0.5,0.5,0.8,1.2,0.8,2.1v0.7
		c0,0.8-0.3,1.5-0.8,2c-0.5,0.5-1.2,0.8-2.1,0.8c-0.9,0-1.6-0.3-2.1-0.8c-0.5-0.5-0.8-1.2-0.8-2.1V28.1z M112.8,28.8
		c0,0.4,0.1,0.7,0.3,0.9c0.2,0.2,0.5,0.3,0.8,0.3c0.3,0,0.6-0.1,0.8-0.3c0.2-0.2,0.3-0.5,0.3-0.9v-0.7c0-0.4-0.1-0.7-0.3-0.9
		c-0.2-0.2-0.5-0.3-0.8-0.3c-0.3,0-0.6,0.1-0.8,0.3c-0.2,0.2-0.3,0.5-0.3,0.9V28.8z M114.5,37.9l-1.3-0.7l6.6-10.5l1.3,0.7
		L114.5,37.9z M117.5,35.7c0-0.8,0.3-1.5,0.8-2c0.5-0.5,1.2-0.8,2.1-0.8c0.9,0,1.6,0.3,2.1,0.8c0.5,0.5,0.8,1.2,0.8,2.1v0.7
		c0,0.8-0.3,1.5-0.8,2s-1.2,0.8-2.1,0.8c-0.9,0-1.6-0.3-2.1-0.8c-0.5-0.5-0.8-1.2-0.8-2V35.7z M119.2,36.4c0,0.3,0.1,0.6,0.3,0.9
		c0.2,0.2,0.5,0.4,0.8,0.4c0.7,0,1.1-0.4,1.1-1.3v-0.7c0-0.4-0.1-0.7-0.3-0.9c-0.2-0.2-0.5-0.3-0.8-0.3c-0.3,0-0.6,0.1-0.8,0.3
		c-0.2,0.2-0.3,0.5-0.3,0.9V36.4z"/>
</g>
<g>
	<path class="st3" d="M30.8,81h-3.6l-0.8,2.2h-1.2l3.3-8.5h1l3.3,8.5h-1.2L30.8,81z M27.6,80.1h2.9l-1.5-4L27.6,80.1z"/>
	<path class="st3" d="M36.9,77.9c-0.2,0-0.3,0-0.5,0c-0.7,0-1.2,0.3-1.4,0.9v4.5h-1.1v-6.3h1.1l0,0.7c0.4-0.6,0.9-0.8,1.5-0.8
		c0.2,0,0.4,0,0.5,0.1V77.9z"/>
	<path class="st3" d="M40.4,83.3c-0.9,0-1.6-0.3-2.1-0.8s-0.8-1.3-0.8-2.3V80c0-0.6,0.1-1.2,0.4-1.7s0.6-0.9,1-1.2s0.9-0.4,1.4-0.4
		c0.8,0,1.5,0.3,1.9,0.8s0.7,1.3,0.7,2.3v0.5h-4.3c0,0.6,0.2,1.1,0.5,1.5s0.8,0.6,1.3,0.6c0.4,0,0.7-0.1,1-0.2s0.5-0.4,0.7-0.6
		l0.7,0.5C42.2,82.9,41.4,83.3,40.4,83.3z M40.2,77.7c-0.4,0-0.8,0.2-1.1,0.5s-0.5,0.8-0.6,1.3h3.2v-0.1c0-0.6-0.2-1-0.4-1.3
		S40.7,77.7,40.2,77.7z"/>
	<path class="st3" d="M49.7,83.3c-0.9,0-1.6-0.3-2.1-0.8s-0.8-1.3-0.8-2.3V80c0-0.6,0.1-1.2,0.4-1.7s0.6-0.9,1-1.2s0.9-0.4,1.4-0.4
		c0.8,0,1.5,0.3,1.9,0.8s0.7,1.3,0.7,2.3v0.5h-4.3c0,0.6,0.2,1.1,0.5,1.5s0.8,0.6,1.3,0.6c0.4,0,0.7-0.1,1-0.2s0.5-0.4,0.7-0.6
		l0.7,0.5C51.6,82.9,50.8,83.3,49.7,83.3z M49.6,77.7c-0.4,0-0.8,0.2-1.1,0.5s-0.5,0.8-0.6,1.3h3.2v-0.1c0-0.6-0.2-1-0.4-1.3
		S50,77.7,49.6,77.7z"/>
	<path class="st3" d="M54.4,76.9l0,0.7c0.5-0.5,1.1-0.8,1.9-0.8c0.9,0,1.5,0.3,1.8,1c0.2-0.3,0.5-0.6,0.8-0.7s0.7-0.3,1.2-0.3
		c1.4,0,2.1,0.7,2.1,2.2v4.2h-1.1V79c0-0.5-0.1-0.8-0.3-1s-0.6-0.3-1-0.3c-0.4,0-0.7,0.1-1,0.4s-0.4,0.6-0.5,1v4.2h-1.1v-4.2
		c0-0.9-0.5-1.4-1.4-1.4c-0.7,0-1.2,0.3-1.5,0.9v4.6h-1.1v-6.3H54.4z"/>
	<path class="st3" d="M69.3,80.1c0,1-0.2,1.7-0.7,2.3s-1,0.9-1.8,0.9c-0.8,0-1.4-0.2-1.8-0.7v3.1h-1.1v-8.8h1l0.1,0.7
		c0.4-0.5,1.1-0.8,1.8-0.8c0.8,0,1.4,0.3,1.8,0.9S69.3,79,69.3,80.1L69.3,80.1z M68.2,80c0-0.7-0.2-1.3-0.5-1.7s-0.7-0.6-1.3-0.6
		c-0.7,0-1.1,0.3-1.5,0.9v3c0.3,0.6,0.8,0.9,1.5,0.9c0.5,0,0.9-0.2,1.2-0.6S68.2,80.8,68.2,80z"/>
	<path class="st3" d="M71.9,83.2h-1.1v-9h1.1V83.2z"/>
	<path class="st3" d="M73.3,80c0-0.6,0.1-1.2,0.4-1.7s0.6-0.9,1-1.1s0.9-0.4,1.5-0.4c0.9,0,1.6,0.3,2.1,0.9s0.8,1.4,0.8,2.4v0.1
		c0,0.6-0.1,1.2-0.4,1.7s-0.6,0.9-1,1.1s-0.9,0.4-1.5,0.4c-0.9,0-1.6-0.3-2.1-0.9S73.3,81,73.3,80L73.3,80z M74.4,80.1
		c0,0.7,0.2,1.3,0.5,1.7s0.8,0.6,1.3,0.6c0.6,0,1-0.2,1.3-0.6s0.5-1,0.5-1.8c0-0.7-0.2-1.3-0.5-1.7s-0.8-0.6-1.3-0.6
		c-0.5,0-1,0.2-1.3,0.6S74.4,79.3,74.4,80.1z"/>
	<path class="st3" d="M82.4,81.6l1.5-4.8h1.2l-2.5,7.3c-0.4,1.1-1,1.6-1.9,1.6l-0.2,0L80,85.7v-0.9l0.3,0c0.4,0,0.7-0.1,0.9-0.2
		s0.4-0.4,0.5-0.8l0.2-0.6l-2.3-6.3h1.2L82.4,81.6z"/>
	<path class="st3" d="M88.6,83.3c-0.9,0-1.6-0.3-2.1-0.8s-0.8-1.3-0.8-2.3V80c0-0.6,0.1-1.2,0.4-1.7s0.6-0.9,1-1.2s0.9-0.4,1.4-0.4
		c0.8,0,1.5,0.3,1.9,0.8s0.7,1.3,0.7,2.3v0.5h-4.3c0,0.6,0.2,1.1,0.5,1.5s0.8,0.6,1.3,0.6c0.4,0,0.7-0.1,1-0.2s0.5-0.4,0.7-0.6
		l0.7,0.5C90.4,82.9,89.6,83.3,88.6,83.3z M88.4,77.7c-0.4,0-0.8,0.2-1.1,0.5s-0.5,0.8-0.6,1.3H90v-0.1c0-0.6-0.2-1-0.4-1.3
		S88.9,77.7,88.4,77.7z"/>
	<path class="st3" d="M92,80c0-1,0.2-1.8,0.7-2.3s1.1-0.9,1.8-0.9c0.7,0,1.3,0.3,1.8,0.8v-3.3h1.1v9h-1l-0.1-0.7
		c-0.4,0.5-1,0.8-1.8,0.8c-0.7,0-1.3-0.3-1.8-0.9S92,81,92,80L92,80z M93.1,80.1c0,0.7,0.1,1.3,0.4,1.7s0.7,0.6,1.2,0.6
		c0.7,0,1.2-0.3,1.5-0.9v-2.9c-0.3-0.6-0.8-0.9-1.5-0.9c-0.5,0-0.9,0.2-1.2,0.6S93.1,79.3,93.1,80.1z"/>
	<path class="st3" d="M106,83.2c-0.1-0.1-0.1-0.3-0.2-0.7c-0.5,0.5-1.1,0.8-1.8,0.8c-0.6,0-1.1-0.2-1.5-0.5s-0.6-0.8-0.6-1.3
		c0-0.7,0.3-1.2,0.8-1.5s1.2-0.5,2.1-0.5h1.1v-0.5c0-0.4-0.1-0.7-0.3-0.9s-0.6-0.3-1-0.3c-0.4,0-0.7,0.1-1,0.3s-0.4,0.4-0.4,0.7H102
		c0-0.3,0.1-0.6,0.3-0.9s0.5-0.5,0.9-0.7s0.8-0.3,1.3-0.3c0.7,0,1.3,0.2,1.7,0.5c0.4,0.4,0.6,0.9,0.6,1.5v2.9c0,0.6,0.1,1,0.2,1.4
		v0.1H106z M104.2,82.4c0.3,0,0.7-0.1,1-0.3s0.5-0.4,0.7-0.7v-1.3h-0.8c-1.3,0-2,0.4-2,1.2c0,0.3,0.1,0.6,0.3,0.8
		S103.8,82.4,104.2,82.4z"/>
	<path class="st3" d="M110,75.3v1.5h1.2v0.8H110v3.9c0,0.3,0.1,0.4,0.2,0.6s0.3,0.2,0.5,0.2c0.1,0,0.3,0,0.5-0.1v0.9
		c-0.3,0.1-0.6,0.1-0.8,0.1c-0.5,0-0.8-0.1-1.1-0.4s-0.4-0.7-0.4-1.2v-3.9h-1.2v-0.8h1.2v-1.5H110z"/>
	<path class="st3" d="M115.2,80c0-0.6,0.1-1.2,0.4-1.7s0.6-0.9,1-1.1s0.9-0.4,1.5-0.4c0.9,0,1.6,0.3,2.1,0.9s0.8,1.4,0.8,2.4v0.1
		c0,0.6-0.1,1.2-0.4,1.7s-0.6,0.9-1,1.1s-0.9,0.4-1.5,0.4c-0.9,0-1.6-0.3-2.1-0.9S115.2,81,115.2,80L115.2,80z M116.3,80.1
		c0,0.7,0.2,1.3,0.5,1.7s0.8,0.6,1.3,0.6c0.6,0,1-0.2,1.3-0.6s0.5-1,0.5-1.8c0-0.7-0.2-1.3-0.5-1.7s-0.8-0.6-1.3-0.6
		c-0.5,0-1,0.2-1.3,0.6S116.3,79.3,116.3,80.1z"/>
	<path class="st3" d="M125.4,77.9c-0.2,0-0.3,0-0.5,0c-0.7,0-1.2,0.3-1.4,0.9v4.5h-1.1v-6.3h1.1l0,0.7c0.4-0.6,0.9-0.8,1.5-0.8
		c0.2,0,0.4,0,0.5,0.1V77.9z"/>
	<path class="st3" d="M126,80c0-1,0.2-1.8,0.7-2.4s1.1-0.9,1.8-0.9c0.8,0,1.4,0.3,1.8,0.8l0.1-0.7h1v6.2c0,0.8-0.2,1.5-0.7,1.9
		s-1.1,0.7-2,0.7c-0.5,0-0.9-0.1-1.3-0.3s-0.8-0.5-1-0.8l0.6-0.7c0.5,0.6,1,0.9,1.7,0.9c0.5,0,0.9-0.1,1.2-0.4s0.4-0.7,0.4-1.3v-0.5
		c-0.4,0.5-1,0.8-1.8,0.8c-0.7,0-1.3-0.3-1.8-0.9S126,81,126,80z M127.1,80.1c0,0.7,0.1,1.3,0.4,1.7s0.7,0.6,1.2,0.6
		c0.7,0,1.2-0.3,1.5-0.9v-2.9c-0.3-0.6-0.8-0.9-1.5-0.9c-0.5,0-0.9,0.2-1.2,0.6S127.1,79.3,127.1,80.1z"/>
	<path class="st3" d="M136.9,83.2c-0.1-0.1-0.1-0.3-0.2-0.7c-0.5,0.5-1.1,0.8-1.8,0.8c-0.6,0-1.1-0.2-1.5-0.5s-0.6-0.8-0.6-1.3
		c0-0.7,0.3-1.2,0.8-1.5s1.2-0.5,2.1-0.5h1.1v-0.5c0-0.4-0.1-0.7-0.3-0.9s-0.6-0.3-1-0.3c-0.4,0-0.7,0.1-1,0.3s-0.4,0.4-0.4,0.7
		h-1.1c0-0.3,0.1-0.6,0.3-0.9s0.5-0.5,0.9-0.7s0.8-0.3,1.3-0.3c0.7,0,1.3,0.2,1.7,0.5s0.6,0.9,0.6,1.5v2.9c0,0.6,0.1,1,0.2,1.4v0.1
		H136.9z M135.1,82.4c0.3,0,0.7-0.1,1-0.3s0.5-0.4,0.7-0.7v-1.3h-0.8c-1.3,0-2,0.4-2,1.2c0,0.3,0.1,0.6,0.3,0.8
		S134.7,82.4,135.1,82.4z"/>
	<path class="st3" d="M140.5,76.9l0,0.8c0.5-0.6,1.1-0.9,1.9-0.9c1.3,0,2,0.8,2,2.3v4.2h-1.1V79c0-0.5-0.1-0.8-0.3-1s-0.5-0.3-1-0.3
		c-0.4,0-0.7,0.1-0.9,0.3s-0.5,0.4-0.6,0.7v4.5h-1.1v-6.3H140.5z"/>
	<path class="st3" d="M146.1,75.2c0-0.2,0.1-0.3,0.2-0.4s0.3-0.2,0.5-0.2s0.4,0.1,0.5,0.2s0.2,0.3,0.2,0.4s-0.1,0.3-0.2,0.4
		s-0.3,0.2-0.5,0.2s-0.4-0.1-0.5-0.2S146.1,75.4,146.1,75.2z M147.3,83.2h-1.1v-6.3h1.1V83.2z"/>
	<path class="st3" d="M150.1,82.3h3.7v0.9h-5v-0.8l3.5-4.6h-3.4v-0.9h4.8v0.8L150.1,82.3z"/>
	<path class="st3" d="M158.9,83.2c-0.1-0.1-0.1-0.3-0.2-0.7c-0.5,0.5-1.1,0.8-1.8,0.8c-0.6,0-1.1-0.2-1.5-0.5s-0.6-0.8-0.6-1.3
		c0-0.7,0.3-1.2,0.8-1.5s1.2-0.5,2.1-0.5h1.1v-0.5c0-0.4-0.1-0.7-0.3-0.9s-0.6-0.3-1-0.3c-0.4,0-0.7,0.1-1,0.3s-0.4,0.4-0.4,0.7
		h-1.1c0-0.3,0.1-0.6,0.3-0.9s0.5-0.5,0.9-0.7s0.8-0.3,1.3-0.3c0.7,0,1.3,0.2,1.7,0.5s0.6,0.9,0.6,1.5v2.9c0,0.6,0.1,1,0.2,1.4v0.1
		H158.9z M157.1,82.4c0.3,0,0.7-0.1,1-0.3s0.5-0.4,0.7-0.7v-1.3h-0.8c-1.3,0-2,0.4-2,1.2c0,0.3,0.1,0.6,0.3,0.8
		S156.8,82.4,157.1,82.4z"/>
	<path class="st3" d="M163,75.3v1.5h1.2v0.8H163v3.9c0,0.3,0.1,0.4,0.2,0.6s0.3,0.2,0.5,0.2c0.1,0,0.3,0,0.5-0.1v0.9
		c-0.3,0.1-0.6,0.1-0.8,0.1c-0.5,0-0.8-0.1-1.1-0.4s-0.4-0.7-0.4-1.2v-3.9h-1.2v-0.8h1.2v-1.5H163z"/>
	<path class="st3" d="M165.4,75.2c0-0.2,0.1-0.3,0.2-0.4s0.3-0.2,0.5-0.2s0.4,0.1,0.5,0.2s0.2,0.3,0.2,0.4s-0.1,0.3-0.2,0.4
		s-0.3,0.2-0.5,0.2s-0.4-0.1-0.5-0.2S165.4,75.4,165.4,75.2z M166.6,83.2h-1.1v-6.3h1.1V83.2z"/>
	<path class="st3" d="M168.1,80c0-0.6,0.1-1.2,0.4-1.7s0.6-0.9,1-1.1s0.9-0.4,1.5-0.4c0.9,0,1.6,0.3,2.1,0.9s0.8,1.4,0.8,2.4v0.1
		c0,0.6-0.1,1.2-0.4,1.7s-0.6,0.9-1,1.1s-0.9,0.4-1.5,0.4c-0.9,0-1.6-0.3-2.1-0.9S168.1,81,168.1,80L168.1,80z M169.2,80.1
		c0,0.7,0.2,1.3,0.5,1.7s0.8,0.6,1.3,0.6c0.6,0,1-0.2,1.3-0.6s0.5-1,0.5-1.8c0-0.7-0.2-1.3-0.5-1.7s-0.8-0.6-1.3-0.6
		c-0.5,0-1,0.2-1.3,0.6S169.2,79.3,169.2,80.1z"/>
	<path class="st3" d="M176.2,76.9l0,0.8c0.5-0.6,1.1-0.9,1.9-0.9c1.3,0,2,0.8,2,2.3v4.2h-1.1V79c0-0.5-0.1-0.8-0.3-1s-0.5-0.3-1-0.3
		c-0.4,0-0.7,0.1-0.9,0.3s-0.5,0.4-0.6,0.7v4.5h-1.1v-6.3H176.2z"/>
	<path class="st3" d="M185.5,81.5c0-0.3-0.1-0.5-0.3-0.7s-0.6-0.3-1.2-0.4s-1-0.3-1.3-0.4s-0.6-0.4-0.7-0.6s-0.2-0.5-0.2-0.8
		c0-0.5,0.2-1,0.7-1.3s1-0.5,1.7-0.5c0.7,0,1.3,0.2,1.7,0.6s0.7,0.8,0.7,1.4h-1.1c0-0.3-0.1-0.6-0.4-0.8s-0.6-0.3-1-0.3
		c-0.4,0-0.7,0.1-0.9,0.3s-0.3,0.4-0.3,0.7c0,0.3,0.1,0.5,0.3,0.6s0.6,0.3,1.1,0.4s1,0.3,1.3,0.4s0.6,0.4,0.7,0.6s0.2,0.5,0.2,0.9
		c0,0.6-0.2,1-0.7,1.4s-1,0.5-1.8,0.5c-0.5,0-1-0.1-1.3-0.3s-0.7-0.4-0.9-0.8s-0.3-0.7-0.3-1h1.1c0,0.4,0.2,0.7,0.4,0.9
		s0.6,0.3,1.1,0.3c0.4,0,0.7-0.1,1-0.2S185.5,81.8,185.5,81.5z"/>
	<path class="st3" d="M51.5,96.7l1.2-4.8h1.1l-1.8,6.3H51l-1.5-4.8L48,98.2h-0.9l-1.8-6.3h1.1l1.2,4.7l1.5-4.7h0.9L51.5,96.7z"/>
	<path class="st3" d="M54.9,90.2c0-0.2,0.1-0.3,0.2-0.4s0.3-0.2,0.5-0.2s0.4,0.1,0.5,0.2s0.2,0.3,0.2,0.4s-0.1,0.3-0.2,0.4
		s-0.3,0.2-0.5,0.2s-0.4-0.1-0.5-0.2S54.9,90.4,54.9,90.2z M56,98.2H55v-6.3H56V98.2z"/>
	<path class="st3" d="M59.2,90.3v1.5h1.2v0.8h-1.2v3.9c0,0.3,0.1,0.4,0.2,0.6s0.3,0.2,0.5,0.2c0.1,0,0.3,0,0.5-0.1v0.9
		c-0.3,0.1-0.6,0.1-0.8,0.1c-0.5,0-0.8-0.1-1.1-0.4s-0.4-0.7-0.4-1.2v-3.9H57v-0.8h1.2v-1.5H59.2z"/>
	<path class="st3" d="M62.8,92.6c0.5-0.6,1.1-0.9,1.9-0.9c1.3,0,2,0.8,2,2.3v4.2h-1.1V94c0-0.5-0.1-0.8-0.3-1s-0.5-0.3-1-0.3
		c-0.4,0-0.7,0.1-0.9,0.3s-0.5,0.4-0.6,0.7v4.5h-1.1v-9h1.1V92.6z"/>
	<path class="st3" d="M74.7,98.2h-1.1V91l-2.2,0.8v-1l3.1-1.2h0.2V98.2z"/>
	<path class="st3" d="M78,99.9l-0.6-0.4c0.4-0.5,0.6-1,0.6-1.6v-1H79v0.8c0,0.4-0.1,0.8-0.3,1.2S78.3,99.7,78,99.9z"/>
	<path class="st3" d="M85.6,94.6c0,1.3-0.2,2.2-0.7,2.8s-1.1,0.9-2,0.9c-0.9,0-1.6-0.3-2-0.9s-0.7-1.5-0.7-2.7v-1.4
		c0-1.3,0.2-2.2,0.7-2.8s1.1-0.9,2-0.9c0.9,0,1.6,0.3,2,0.9s0.7,1.5,0.7,2.7V94.6z M84.5,93.1c0-0.9-0.1-1.6-0.4-2s-0.7-0.6-1.2-0.6
		c-0.6,0-1,0.2-1.2,0.6s-0.4,1.1-0.4,1.9v1.7c0,0.9,0.1,1.6,0.4,2s0.7,0.7,1.2,0.7c0.5,0,0.9-0.2,1.2-0.6s0.4-1.1,0.4-2V93.1z"/>
	<path class="st3" d="M92.3,94.6c0,1.3-0.2,2.2-0.7,2.8s-1.1,0.9-2,0.9c-0.9,0-1.6-0.3-2-0.9S87,95.9,87,94.7v-1.4
		c0-1.3,0.2-2.2,0.7-2.8s1.1-0.9,2-0.9c0.9,0,1.6,0.3,2,0.9s0.7,1.5,0.7,2.7V94.6z M91.3,93.1c0-0.9-0.1-1.6-0.4-2s-0.7-0.6-1.2-0.6
		c-0.6,0-1,0.2-1.2,0.6S88,92.1,88,93v1.7c0,0.9,0.1,1.6,0.4,2s0.7,0.7,1.2,0.7c0.5,0,0.9-0.2,1.2-0.6s0.4-1.1,0.4-2V93.1z"/>
	<path class="st3" d="M99.1,94.6c0,1.3-0.2,2.2-0.7,2.8s-1.1,0.9-2,0.9c-0.9,0-1.6-0.3-2-0.9s-0.7-1.5-0.7-2.7v-1.4
		c0-1.3,0.2-2.2,0.7-2.8s1.1-0.9,2-0.9c0.9,0,1.6,0.3,2,0.9s0.7,1.5,0.7,2.7V94.6z M98,93.1c0-0.9-0.1-1.6-0.4-2s-0.7-0.6-1.2-0.6
		c-0.6,0-1,0.2-1.2,0.6s-0.4,1.1-0.4,1.9v1.7c0,0.9,0.1,1.6,0.4,2s0.7,0.7,1.2,0.7c0.5,0,0.9-0.2,1.2-0.6s0.4-1.1,0.4-2V93.1z"/>
	<path class="st3" d="M103.7,93.6h2.4v1h-2.4v2.7h-1.1v-2.7h-2.4v-1h2.4v-2.5h1.1V93.6z"/>
	<path class="st3" d="M113,98.3c-0.9,0-1.6-0.3-2.1-0.8s-0.8-1.3-0.8-2.3V95c0-0.6,0.1-1.2,0.4-1.7s0.6-0.9,1-1.2s0.9-0.4,1.4-0.4
		c0.8,0,1.5,0.3,1.9,0.8s0.7,1.3,0.7,2.3v0.5h-4.3c0,0.6,0.2,1.1,0.5,1.5s0.8,0.6,1.3,0.6c0.4,0,0.7-0.1,1-0.2s0.5-0.4,0.7-0.6
		l0.7,0.5C114.8,97.9,114,98.3,113,98.3z M112.8,92.7c-0.4,0-0.8,0.2-1.1,0.5s-0.5,0.8-0.6,1.3h3.2v-0.1c0-0.6-0.2-1-0.4-1.3
		S113.3,92.7,112.8,92.7z"/>
	<path class="st3" d="M117.7,91.9l0,0.7c0.5-0.5,1.1-0.8,1.9-0.8c0.9,0,1.5,0.3,1.8,1c0.2-0.3,0.5-0.6,0.8-0.7s0.7-0.3,1.2-0.3
		c1.4,0,2.1,0.7,2.1,2.2v4.2h-1.1V94c0-0.5-0.1-0.8-0.3-1s-0.6-0.3-1-0.3c-0.4,0-0.7,0.1-1,0.4s-0.4,0.6-0.5,1v4.2h-1.1v-4.2
		c0-0.9-0.5-1.4-1.4-1.4c-0.7,0-1.2,0.3-1.5,0.9v4.6h-1.1v-6.3H117.7z"/>
	<path class="st3" d="M132.6,95.1c0,1-0.2,1.7-0.7,2.3s-1,0.9-1.8,0.9c-0.8,0-1.4-0.2-1.8-0.7v3.1h-1.1v-8.8h1l0.1,0.7
		c0.4-0.5,1.1-0.8,1.8-0.8c0.8,0,1.4,0.3,1.8,0.9S132.6,94,132.6,95.1L132.6,95.1z M131.5,95c0-0.7-0.2-1.3-0.5-1.7
		s-0.7-0.6-1.3-0.6c-0.7,0-1.1,0.3-1.5,0.9v3c0.3,0.6,0.8,0.9,1.5,0.9c0.5,0,0.9-0.2,1.2-0.6S131.5,95.8,131.5,95z"/>
	<path class="st3" d="M135.1,98.2h-1.1v-9h1.1V98.2z"/>
	<path class="st3" d="M136.6,95c0-0.6,0.1-1.2,0.4-1.7s0.6-0.9,1-1.1s0.9-0.4,1.5-0.4c0.9,0,1.6,0.3,2.1,0.9s0.8,1.4,0.8,2.4v0.1
		c0,0.6-0.1,1.2-0.4,1.7s-0.6,0.9-1,1.1s-0.9,0.4-1.5,0.4c-0.9,0-1.6-0.3-2.1-0.9S136.6,96,136.6,95L136.6,95z M137.7,95.1
		c0,0.7,0.2,1.3,0.5,1.7s0.8,0.6,1.3,0.6c0.6,0,1-0.2,1.3-0.6s0.5-1,0.5-1.8c0-0.7-0.2-1.3-0.5-1.7s-0.8-0.6-1.3-0.6
		c-0.5,0-1,0.2-1.3,0.6S137.7,94.3,137.7,95.1z"/>
	<path class="st3" d="M145.7,96.6l1.5-4.8h1.2l-2.5,7.3c-0.4,1.1-1,1.6-1.9,1.6l-0.2,0l-0.4-0.1v-0.9l0.3,0c0.4,0,0.7-0.1,0.9-0.2
		s0.4-0.4,0.5-0.8l0.2-0.6l-2.3-6.3h1.2L145.7,96.6z"/>
	<path class="st3" d="M151.9,98.3c-0.9,0-1.6-0.3-2.1-0.8s-0.8-1.3-0.8-2.3V95c0-0.6,0.1-1.2,0.4-1.7s0.6-0.9,1-1.2s0.9-0.4,1.4-0.4
		c0.8,0,1.5,0.3,1.9,0.8s0.7,1.3,0.7,2.3v0.5H150c0,0.6,0.2,1.1,0.5,1.5s0.8,0.6,1.3,0.6c0.4,0,0.7-0.1,1-0.2s0.5-0.4,0.7-0.6
		l0.7,0.5C153.7,97.9,152.9,98.3,151.9,98.3z M151.7,92.7c-0.4,0-0.8,0.2-1.1,0.5s-0.5,0.8-0.6,1.3h3.2v-0.1c0-0.6-0.2-1-0.4-1.3
		S152.2,92.7,151.7,92.7z"/>
	<path class="st3" d="M158.2,98.3c-0.9,0-1.6-0.3-2.1-0.8s-0.8-1.3-0.8-2.3V95c0-0.6,0.1-1.2,0.4-1.7s0.6-0.9,1-1.2s0.9-0.4,1.4-0.4
		c0.8,0,1.5,0.3,1.9,0.8s0.7,1.3,0.7,2.3v0.5h-4.3c0,0.6,0.2,1.1,0.5,1.5s0.8,0.6,1.3,0.6c0.4,0,0.7-0.1,1-0.2s0.5-0.4,0.7-0.6
		l0.7,0.5C160.1,97.9,159.3,98.3,158.2,98.3z M158.1,92.7c-0.4,0-0.8,0.2-1.1,0.5s-0.5,0.8-0.6,1.3h3.2v-0.1c0-0.6-0.2-1-0.4-1.3
		S158.5,92.7,158.1,92.7z"/>
	<path class="st3" d="M165.6,96.5c0-0.3-0.1-0.5-0.3-0.7s-0.6-0.3-1.2-0.4s-1-0.3-1.3-0.4s-0.6-0.4-0.7-0.6s-0.2-0.5-0.2-0.8
		c0-0.5,0.2-1,0.7-1.3s1-0.5,1.7-0.5c0.7,0,1.3,0.2,1.7,0.6s0.7,0.8,0.7,1.4h-1.1c0-0.3-0.1-0.6-0.4-0.8s-0.6-0.3-1-0.3
		c-0.4,0-0.7,0.1-0.9,0.3s-0.3,0.4-0.3,0.7c0,0.3,0.1,0.5,0.3,0.6s0.6,0.3,1.1,0.4s1,0.3,1.3,0.4s0.6,0.4,0.7,0.6s0.2,0.5,0.2,0.9
		c0,0.6-0.2,1-0.7,1.4s-1,0.5-1.8,0.5c-0.5,0-1-0.1-1.3-0.3s-0.7-0.4-0.9-0.8s-0.3-0.7-0.3-1h1.1c0,0.4,0.2,0.7,0.4,0.9
		s0.6,0.3,1.1,0.3c0.4,0,0.7-0.1,1-0.2S165.6,96.8,165.6,96.5z"/>
</g>
</svg>
