<?xml version="1.0" encoding="utf-8"?>
<!-- Generator: Adobe Illustrator 22.1.0, SVG Export Plug-In . SVG Version: 6.00 Build 0)  -->
<svg version="1.1" id="Layer_1" xmlns="http://www.w3.org/2000/svg" xmlns:xlink="http://www.w3.org/1999/xlink" x="0px" y="0px"
	 viewBox="0 0 209.3 113.4" style="enable-background:new 0 0 209.3 113.4;" xml:space="preserve">
<style type="text/css">
	.st0{fill:none;stroke:#F1F2F2;stroke-width:0.75;stroke-linecap:round;stroke-miterlimit:10;stroke-dasharray:1.006,3.017;}
	.st1{fill:none;stroke:#F1F2F2;stroke-width:0.75;stroke-linecap:round;stroke-miterlimit:10;}
	.st2{fill:#FFFFFF;}
	.st3{fill:none;stroke:url(#SVGID_1_);stroke-width:7;stroke-linecap:round;stroke-miterlimit:10;}
</style>
<g>
	<g>
		<path class="st0" d="M131.1,36.9c-1.6,13.2-12.5,23.6-25.9,24.6"/>
	</g>
	<g>
		<path class="st0" d="M99.6,61.3C86.4,59.7,76,48.8,75,35.4"/>
	</g>
	<g>
		<path class="st0" d="M75.2,29.8c1.6-13.2,12.5-23.6,25.9-24.6"/>
	</g>
	<g>
		<path class="st0" d="M106.6,5.4c13.2,1.6,23.6,12.5,24.6,25.9"/>
	</g>
	<g>
		<path class="st1" d="M131.2,32.8c0,0.2,0,0.3,0,0.5s0,0.3,0,0.5 M102.6,5.2c0.2,0,0.3,0,0.5,0s0.3,0,0.5,0 M75,33.9
			c0-0.2,0-0.3,0-0.5s0-0.3,0-0.5 M103.6,61.5c-0.2,0-0.3,0-0.5,0s-0.3,0-0.5,0"/>
	</g>
</g>
<g>
	<path class="st2" d="M97.3,27.7l-4.9,11.4h-2.7l5-10.7h-6.4v-2h9V27.7z"/>
	<path class="st2" d="M101.5,31.5h1.4c0.6,0,1.1-0.2,1.4-0.5s0.5-0.8,0.5-1.3s-0.2-0.9-0.5-1.2s-0.7-0.4-1.3-0.4
		c-0.5,0-0.9,0.1-1.2,0.4c-0.3,0.3-0.5,0.6-0.5,1h-2.5c0-0.7,0.2-1.3,0.5-1.8c0.4-0.5,0.9-0.9,1.5-1.2s1.4-0.4,2.1-0.4
		c1.4,0,2.4,0.3,3.2,1c0.8,0.6,1.2,1.5,1.2,2.7c0,0.6-0.2,1.1-0.5,1.6s-0.8,0.9-1.4,1.1c0.7,0.3,1.3,0.6,1.6,1.2s0.5,1.1,0.5,1.8
		c0,1.1-0.4,2-1.2,2.7s-1.9,1-3.3,1c-1.3,0-2.3-0.3-3.1-1s-1.2-1.6-1.2-2.7h2.5c0,0.5,0.2,0.9,0.5,1.2s0.8,0.5,1.3,0.5
		c0.6,0,1.1-0.2,1.4-0.5s0.5-0.7,0.5-1.3c0-1.3-0.7-1.9-2.1-1.9h-1.3V31.5z"/>
	<path class="st2" d="M109.2,28.7c0-0.8,0.3-1.4,0.8-1.9s1.2-0.7,2-0.7s1.5,0.2,2,0.7s0.8,1.1,0.8,2v0.6c0,0.8-0.3,1.4-0.8,1.9
		s-1.2,0.7-2,0.7s-1.5-0.2-2-0.7s-0.8-1.1-0.8-2V28.7z M110.9,29.4c0,0.4,0.1,0.6,0.3,0.9c0.2,0.2,0.5,0.3,0.8,0.3s0.6-0.1,0.8-0.3
		c0.2-0.2,0.3-0.5,0.3-0.9v-0.7c0-0.4-0.1-0.6-0.3-0.9s-0.5-0.3-0.8-0.3s-0.6,0.1-0.8,0.3c-0.2,0.2-0.3,0.5-0.3,0.9V29.4z
		 M112.5,38.1l-1.2-0.7l6.2-10l1.2,0.7L112.5,38.1z M115.3,35.9c0-0.8,0.3-1.4,0.8-1.9s1.2-0.7,2-0.7s1.5,0.2,2,0.7s0.8,1.1,0.8,2
		v0.6c0,0.8-0.3,1.4-0.8,1.9s-1.2,0.7-2,0.7s-1.5-0.2-2-0.7s-0.8-1.1-0.8-1.9V35.9z M117,36.6c0,0.3,0.1,0.6,0.3,0.8
		s0.5,0.3,0.8,0.3c0.7,0,1.1-0.4,1.1-1.2v-0.7c0-0.4-0.1-0.6-0.3-0.9c-0.2-0.2-0.5-0.3-0.8-0.3s-0.6,0.1-0.8,0.3
		c-0.2,0.2-0.3,0.5-0.3,0.9C117,35.8,117,36.6,117,36.6z"/>
</g>
<g>
	<g>
		
			<linearGradient id="SVGID_1_" gradientUnits="userSpaceOnUse" x1="71.6754" y1="81.77" x2="134.6754" y2="81.77" gradientTransform="matrix(1 0 0 -1 0 114.44)">
			<stop  offset="0" style="stop-color:#FFC709"/>
			<stop  offset="1" style="stop-color:#EF4136"/>
		</linearGradient>
		<path class="st3" d="M103,4.5c15.5,0,28.1,12.6,28.1,28.1S118.6,60.8,103,60.8c-14.3,0-25.9-10.1-27.9-24.2"/>
	</g>
</g>
<g>
	<path class="st2" d="M26.6,84.4h-1.1v-3.9h-4.3v3.9H20v-8.5h1.1v3.7h4.3v-3.7h1.1V84.4z"/>
	<path class="st2" d="M32.3,84.4c-0.1-0.1-0.1-0.3-0.2-0.7c-0.5,0.5-1.1,0.8-1.8,0.8c-0.6,0-1.1-0.2-1.5-0.5s-0.6-0.8-0.6-1.3
		c0-0.7,0.3-1.2,0.8-1.5s1.2-0.5,2.1-0.5h1.1V80c0-0.4-0.1-0.7-0.3-0.9s-0.6-0.3-1-0.3c-0.4,0-0.7,0.1-1,0.3s-0.4,0.4-0.4,0.7h-1.1
		c0-0.3,0.1-0.6,0.3-0.9s0.5-0.5,0.9-0.7s0.8-0.3,1.3-0.3c0.7,0,1.3,0.2,1.7,0.5s0.6,0.9,0.6,1.5v2.9c0,0.6,0.1,1,0.2,1.4v0.1H32.3z
		 M30.5,83.5c0.3,0,0.7-0.1,1-0.3s0.5-0.4,0.7-0.7v-1.3h-0.8c-1.3,0-2,0.4-2,1.2c0,0.3,0.1,0.6,0.3,0.8S30.2,83.5,30.5,83.5z"/>
	<path class="st2" d="M37,82.9l1.6-4.9h1.1l-2.3,6.3h-0.8L34.2,78h1.1L37,82.9z"/>
	<path class="st2" d="M43.2,84.5c-0.9,0-1.6-0.3-2.1-0.8s-0.8-1.3-0.8-2.3v-0.2c0-0.6,0.1-1.2,0.4-1.7s0.6-0.9,1-1.2
		s0.9-0.4,1.4-0.4c0.8,0,1.5,0.3,1.9,0.8s0.7,1.3,0.7,2.3v0.5h-4.3c0,0.6,0.2,1.1,0.5,1.5s0.8,0.6,1.3,0.6c0.4,0,0.7-0.1,1-0.2
		s0.5-0.4,0.7-0.6l0.7,0.5C45.1,84.1,44.3,84.5,43.2,84.5z M43.1,78.8c-0.4,0-0.8,0.2-1.1,0.5s-0.5,0.8-0.6,1.3h3.2v-0.1
		c0-0.6-0.2-1-0.4-1.3S43.5,78.8,43.1,78.8z"/>
	<path class="st2" d="M55.3,81.3c0,1-0.2,1.7-0.7,2.3s-1,0.9-1.8,0.9c-0.8,0-1.4-0.2-1.8-0.7v3.1h-1.1V78h1l0.1,0.7
		c0.4-0.5,1.1-0.8,1.8-0.8c0.8,0,1.4,0.3,1.8,0.9S55.3,80.1,55.3,81.3L55.3,81.3z M54.2,81.1c0-0.7-0.2-1.3-0.5-1.7
		s-0.7-0.6-1.3-0.6c-0.7,0-1.1,0.3-1.5,0.9v3c0.3,0.6,0.8,0.9,1.5,0.9c0.5,0,0.9-0.2,1.2-0.6S54.2,81.9,54.2,81.1z"/>
	<path class="st2" d="M60.6,83.7c-0.4,0.5-1,0.7-1.9,0.7c-0.7,0-1.2-0.2-1.5-0.6s-0.5-1-0.5-1.7V78h1.1v4.1c0,1,0.4,1.4,1.2,1.4
		c0.8,0,1.4-0.3,1.7-0.9V78h1.1v6.3h-1L60.6,83.7z"/>
	<path class="st2" d="M66.3,79c-0.2,0-0.3,0-0.5,0c-0.7,0-1.2,0.3-1.4,0.9v4.5h-1.1V78h1.1l0,0.7c0.4-0.6,0.9-0.8,1.5-0.8
		c0.2,0,0.4,0,0.5,0.1V79z"/>
	<path class="st2" d="M69.8,83.6c0.4,0,0.7-0.1,1-0.4s0.4-0.5,0.5-0.9h1c0,0.4-0.1,0.7-0.4,1S71.4,84,71,84.2s-0.8,0.3-1.2,0.3
		c-0.9,0-1.5-0.3-2.1-0.9s-0.8-1.4-0.8-2.4v-0.2c0-0.6,0.1-1.2,0.3-1.6s0.6-0.9,1-1.1s0.9-0.4,1.5-0.4c0.7,0,1.3,0.2,1.8,0.6
		s0.7,1,0.8,1.7h-1c0-0.4-0.2-0.7-0.5-1s-0.6-0.4-1-0.4c-0.6,0-1,0.2-1.3,0.6s-0.5,1-0.5,1.7v0.2c0,0.7,0.2,1.3,0.5,1.7
		S69.2,83.6,69.8,83.6z"/>
	<path class="st2" d="M74.6,78.8c0.5-0.6,1.1-0.9,1.9-0.9c1.3,0,2,0.8,2,2.3v4.2h-1.1v-4.2c0-0.5-0.1-0.8-0.3-1s-0.5-0.3-1-0.3
		c-0.4,0-0.7,0.1-0.9,0.3s-0.5,0.4-0.6,0.7v4.5h-1.1v-9h1.1V78.8z"/>
	<path class="st2" d="M84,84.4c-0.1-0.1-0.1-0.3-0.2-0.7c-0.5,0.5-1.1,0.8-1.8,0.8c-0.6,0-1.1-0.2-1.5-0.5s-0.6-0.8-0.6-1.3
		c0-0.7,0.3-1.2,0.8-1.5s1.2-0.5,2.1-0.5h1.1V80c0-0.4-0.1-0.7-0.3-0.9s-0.6-0.3-1-0.3c-0.4,0-0.7,0.1-1,0.3s-0.4,0.4-0.4,0.7h-1.1
		c0-0.3,0.1-0.6,0.3-0.9s0.5-0.5,0.9-0.7s0.8-0.3,1.3-0.3c0.7,0,1.3,0.2,1.7,0.5s0.6,0.9,0.6,1.5v2.9c0,0.6,0.1,1,0.2,1.4v0.1H84z
		 M82.2,83.5c0.3,0,0.7-0.1,1-0.3s0.5-0.4,0.7-0.7v-1.3H83c-1.3,0-2,0.4-2,1.2c0,0.3,0.1,0.6,0.3,0.8S81.9,83.5,82.2,83.5z"/>
	<path class="st2" d="M90.3,82.7c0-0.3-0.1-0.5-0.3-0.7s-0.6-0.3-1.2-0.4s-1-0.3-1.3-0.4s-0.6-0.4-0.7-0.6s-0.2-0.5-0.2-0.8
		c0-0.5,0.2-1,0.7-1.3s1-0.5,1.7-0.5c0.7,0,1.3,0.2,1.7,0.6s0.7,0.8,0.7,1.4h-1.1c0-0.3-0.1-0.6-0.4-0.8s-0.6-0.3-1-0.3
		c-0.4,0-0.7,0.1-0.9,0.3s-0.3,0.4-0.3,0.7c0,0.3,0.1,0.5,0.3,0.6s0.6,0.3,1.1,0.4s1,0.3,1.3,0.4s0.6,0.4,0.7,0.6s0.2,0.5,0.2,0.9
		c0,0.6-0.2,1-0.7,1.4s-1,0.5-1.8,0.5c-0.5,0-1-0.1-1.3-0.3s-0.7-0.4-0.9-0.8s-0.3-0.7-0.3-1h1.1c0,0.4,0.2,0.7,0.4,0.9
		s0.6,0.3,1.1,0.3c0.4,0,0.7-0.1,1-0.2S90.3,83,90.3,82.7z"/>
	<path class="st2" d="M95.5,84.5c-0.9,0-1.6-0.3-2.1-0.8s-0.8-1.3-0.8-2.3v-0.2c0-0.6,0.1-1.2,0.4-1.7s0.6-0.9,1-1.2
		s0.9-0.4,1.4-0.4c0.8,0,1.5,0.3,1.9,0.8s0.7,1.3,0.7,2.3v0.5h-4.3c0,0.6,0.2,1.1,0.5,1.5s0.8,0.6,1.3,0.6c0.4,0,0.7-0.1,1-0.2
		s0.5-0.4,0.7-0.6l0.7,0.5C97.3,84.1,96.5,84.5,95.5,84.5z M95.3,78.8c-0.4,0-0.8,0.2-1.1,0.5s-0.5,0.8-0.6,1.3h3.2v-0.1
		c0-0.6-0.2-1-0.4-1.3S95.8,78.8,95.3,78.8z"/>
	<path class="st2" d="M106.1,84.4c-0.1-0.1-0.1-0.3-0.2-0.7c-0.5,0.5-1.1,0.8-1.8,0.8c-0.6,0-1.1-0.2-1.5-0.5s-0.6-0.8-0.6-1.3
		c0-0.7,0.3-1.2,0.8-1.5s1.2-0.5,2.1-0.5h1.1V80c0-0.4-0.1-0.7-0.3-0.9s-0.6-0.3-1-0.3c-0.4,0-0.7,0.1-1,0.3s-0.4,0.4-0.4,0.7h-1.1
		c0-0.3,0.1-0.6,0.3-0.9s0.5-0.5,0.9-0.7s0.8-0.3,1.3-0.3c0.7,0,1.3,0.2,1.7,0.5c0.4,0.4,0.6,0.9,0.6,1.5v2.9c0,0.6,0.1,1,0.2,1.4
		v0.1H106.1z M104.3,83.5c0.3,0,0.7-0.1,1-0.3s0.5-0.4,0.7-0.7v-1.3H105c-1.3,0-2,0.4-2,1.2c0,0.3,0.1,0.6,0.3,0.8
		S103.9,83.5,104.3,83.5z"/>
	<path class="st2" d="M112.6,83.7c-0.4,0.5-1,0.7-1.9,0.7c-0.7,0-1.2-0.2-1.5-0.6s-0.5-1-0.5-1.7V78h1.1v4.1c0,1,0.4,1.4,1.2,1.4
		c0.8,0,1.4-0.3,1.7-0.9V78h1.1v6.3h-1L112.6,83.7z"/>
	<path class="st2" d="M116.8,76.5V78h1.2v0.8h-1.2v3.9c0,0.3,0.1,0.4,0.2,0.6s0.3,0.2,0.5,0.2c0.1,0,0.3,0,0.5-0.1v0.9
		c-0.3,0.1-0.6,0.1-0.8,0.1c-0.5,0-0.8-0.1-1.1-0.4s-0.4-0.7-0.4-1.2v-3.9h-1.2V78h1.2v-1.5H116.8z"/>
	<path class="st2" d="M120.3,78.8c0.5-0.6,1.1-0.9,1.9-0.9c1.3,0,2,0.8,2,2.3v4.2h-1.1v-4.2c0-0.5-0.1-0.8-0.3-1s-0.5-0.3-1-0.3
		c-0.4,0-0.7,0.1-0.9,0.3s-0.5,0.4-0.6,0.7v4.5h-1.1v-9h1.1V78.8z"/>
	<path class="st2" d="M125.5,81.1c0-0.6,0.1-1.2,0.4-1.7s0.6-0.9,1-1.1s0.9-0.4,1.5-0.4c0.9,0,1.6,0.3,2.1,0.9s0.8,1.4,0.8,2.4v0.1
		c0,0.6-0.1,1.2-0.4,1.7s-0.6,0.9-1,1.1s-0.9,0.4-1.5,0.4c-0.9,0-1.6-0.3-2.1-0.9S125.5,82.2,125.5,81.1L125.5,81.1z M126.6,81.3
		c0,0.7,0.2,1.3,0.5,1.7s0.8,0.6,1.3,0.6c0.6,0,1-0.2,1.3-0.6s0.5-1,0.5-1.8c0-0.7-0.2-1.3-0.5-1.7s-0.8-0.6-1.3-0.6
		c-0.5,0-1,0.2-1.3,0.6S126.6,80.5,126.6,81.3z"/>
	<path class="st2" d="M135.7,79c-0.2,0-0.3,0-0.5,0c-0.7,0-1.2,0.3-1.4,0.9v4.5h-1.1V78h1.1l0,0.7c0.4-0.6,0.9-0.8,1.5-0.8
		c0.2,0,0.4,0,0.5,0.1V79z"/>
	<path class="st2" d="M136.7,76.3c0-0.2,0.1-0.3,0.2-0.4s0.3-0.2,0.5-0.2s0.4,0.1,0.5,0.2s0.2,0.3,0.2,0.4s-0.1,0.3-0.2,0.4
		s-0.3,0.2-0.5,0.2s-0.4-0.1-0.5-0.2S136.7,76.5,136.7,76.3z M137.9,84.4h-1.1V78h1.1V84.4z"/>
	<path class="st2" d="M141.1,76.5V78h1.2v0.8h-1.2v3.9c0,0.3,0.1,0.4,0.2,0.6s0.3,0.2,0.5,0.2c0.1,0,0.3,0,0.5-0.1v0.9
		c-0.3,0.1-0.6,0.1-0.8,0.1c-0.5,0-0.8-0.1-1.1-0.4s-0.4-0.7-0.4-1.2v-3.9h-1.2V78h1.2v-1.5H141.1z"/>
	<path class="st2" d="M145.6,82.8l1.5-4.8h1.2l-2.5,7.3c-0.4,1.1-1,1.6-1.9,1.6l-0.2,0l-0.4-0.1v-0.9l0.3,0c0.4,0,0.7-0.1,0.9-0.2
		s0.4-0.4,0.5-0.8l0.2-0.6l-2.3-6.3h1.2L145.6,82.8z"/>
	<path class="st2" d="M156.1,84.4c-0.1-0.1-0.1-0.3-0.2-0.7c-0.5,0.5-1.1,0.8-1.8,0.8c-0.6,0-1.1-0.2-1.5-0.5s-0.6-0.8-0.6-1.3
		c0-0.7,0.3-1.2,0.8-1.5s1.2-0.5,2.1-0.5h1.1V80c0-0.4-0.1-0.7-0.3-0.9s-0.6-0.3-1-0.3c-0.4,0-0.7,0.1-1,0.3s-0.4,0.4-0.4,0.7h-1.1
		c0-0.3,0.1-0.6,0.3-0.9s0.5-0.5,0.9-0.7s0.8-0.3,1.3-0.3c0.7,0,1.3,0.2,1.7,0.5s0.6,0.9,0.6,1.5v2.9c0,0.6,0.1,1,0.2,1.4v0.1H156.1
		z M154.3,83.5c0.3,0,0.7-0.1,1-0.3s0.5-0.4,0.7-0.7v-1.3h-0.8c-1.3,0-2,0.4-2,1.2c0,0.3,0.1,0.6,0.3,0.8S154,83.5,154.3,83.5z"/>
	<path class="st2" d="M159.8,78l0,0.8c0.5-0.6,1.1-0.9,1.9-0.9c1.3,0,2,0.8,2,2.3v4.2h-1.1v-4.2c0-0.5-0.1-0.8-0.3-1s-0.5-0.3-1-0.3
		c-0.4,0-0.7,0.1-0.9,0.3s-0.5,0.4-0.6,0.7v4.5h-1.1V78H159.8z"/>
	<path class="st2" d="M165.1,81.1c0-1,0.2-1.8,0.7-2.3s1.1-0.9,1.8-0.9c0.7,0,1.3,0.3,1.8,0.8v-3.3h1.1v9h-1l-0.1-0.7
		c-0.4,0.5-1,0.8-1.8,0.8c-0.7,0-1.3-0.3-1.8-0.9S165.1,82.2,165.1,81.1L165.1,81.1z M166.2,81.3c0,0.7,0.1,1.3,0.4,1.7
		s0.7,0.6,1.2,0.6c0.7,0,1.2-0.3,1.5-0.9v-2.9c-0.3-0.6-0.8-0.9-1.5-0.9c-0.5,0-0.9,0.2-1.2,0.6S166.2,80.5,166.2,81.3z"/>
	<path class="st2" d="M172.3,85.1h-0.9l3.6-9.3h0.9L172.3,85.1z"/>
	<path class="st2" d="M176.8,81.1c0-0.6,0.1-1.2,0.4-1.7s0.6-0.9,1-1.1s0.9-0.4,1.5-0.4c0.9,0,1.6,0.3,2.1,0.9s0.8,1.4,0.8,2.4v0.1
		c0,0.6-0.1,1.2-0.4,1.7s-0.6,0.9-1,1.1s-0.9,0.4-1.5,0.4c-0.9,0-1.6-0.3-2.1-0.9S176.8,82.2,176.8,81.1L176.8,81.1z M177.9,81.3
		c0,0.7,0.2,1.3,0.5,1.7s0.8,0.6,1.3,0.6c0.6,0,1-0.2,1.3-0.6s0.5-1,0.5-1.8c0-0.7-0.2-1.3-0.5-1.7s-0.8-0.6-1.3-0.6
		c-0.5,0-1,0.2-1.3,0.6S177.9,80.5,177.9,81.3z"/>
	<path class="st2" d="M187,79c-0.2,0-0.3,0-0.5,0c-0.7,0-1.2,0.3-1.4,0.9v4.5h-1.1V78h1.1l0,0.7c0.4-0.6,0.9-0.8,1.5-0.8
		c0.2,0,0.4,0,0.5,0.1V79z"/>
	<path class="st2" d="M37.4,91.3c0-0.2,0.1-0.3,0.2-0.4s0.3-0.2,0.5-0.2s0.4,0.1,0.5,0.2s0.2,0.3,0.2,0.4s-0.1,0.3-0.2,0.4
		s-0.3,0.2-0.5,0.2s-0.4-0.1-0.5-0.2S37.4,91.5,37.4,91.3z M38.5,99.4h-1.1V93h1.1V99.4z"/>
	<path class="st2" d="M41.3,93l0,0.8c0.5-0.6,1.1-0.9,1.9-0.9c1.3,0,2,0.8,2,2.3v4.2h-1.1v-4.2c0-0.5-0.1-0.8-0.3-1s-0.5-0.3-1-0.3
		c-0.4,0-0.7,0.1-0.9,0.3s-0.5,0.4-0.6,0.7v4.5h-1.1V93H41.3z"/>
	<path class="st2" d="M47.4,99.4v-5.5h-1V93h1v-0.7c0-0.7,0.2-1.2,0.5-1.6s0.9-0.6,1.5-0.6c0.2,0,0.5,0,0.7,0.1l-0.1,0.9
		c-0.2,0-0.4-0.1-0.6-0.1c-0.4,0-0.6,0.1-0.8,0.3s-0.3,0.5-0.3,0.9V93h1.4v0.8h-1.4v5.5H47.4z"/>
	<path class="st2" d="M52.2,99.4h-1.1v-9h1.1V99.4z"/>
	<path class="st2" d="M57.9,98.7c-0.4,0.5-1,0.7-1.9,0.7c-0.7,0-1.2-0.2-1.5-0.6s-0.5-1-0.5-1.7V93H55v4.1c0,1,0.4,1.4,1.2,1.4
		c0.8,0,1.4-0.3,1.7-0.9V93h1.1v6.3h-1L57.9,98.7z"/>
	<path class="st2" d="M63.2,99.5c-0.9,0-1.6-0.3-2.1-0.8s-0.8-1.3-0.8-2.3v-0.2c0-0.6,0.1-1.2,0.4-1.7s0.6-0.9,1-1.2
		s0.9-0.4,1.4-0.4c0.8,0,1.5,0.3,1.9,0.8s0.7,1.3,0.7,2.3v0.5h-4.3c0,0.6,0.2,1.1,0.5,1.5s0.8,0.6,1.3,0.6c0.4,0,0.7-0.1,1-0.2
		s0.5-0.4,0.7-0.6l0.7,0.5C65.1,99.1,64.3,99.5,63.2,99.5z M63.1,93.8c-0.4,0-0.8,0.2-1.1,0.5s-0.5,0.8-0.6,1.3h3.2v-0.1
		c0-0.6-0.2-1-0.4-1.3S63.5,93.8,63.1,93.8z"/>
	<path class="st2" d="M68,93l0,0.8c0.5-0.6,1.1-0.9,1.9-0.9c1.3,0,2,0.8,2,2.3v4.2h-1.1v-4.2c0-0.5-0.1-0.8-0.3-1s-0.5-0.3-1-0.3
		c-0.4,0-0.7,0.1-0.9,0.3s-0.5,0.4-0.6,0.7v4.5h-1.1V93H68z"/>
	<path class="st2" d="M76.1,98.6c0.4,0,0.7-0.1,1-0.4s0.4-0.5,0.5-0.9h1c0,0.4-0.1,0.7-0.4,1s-0.5,0.6-0.9,0.8s-0.8,0.3-1.2,0.3
		c-0.9,0-1.5-0.3-2.1-0.9s-0.8-1.4-0.8-2.4v-0.2c0-0.6,0.1-1.2,0.3-1.6s0.6-0.9,1-1.1s0.9-0.4,1.5-0.4c0.7,0,1.3,0.2,1.8,0.6
		s0.7,1,0.8,1.7h-1c0-0.4-0.2-0.7-0.5-1s-0.6-0.4-1-0.4c-0.6,0-1,0.2-1.3,0.6s-0.5,1-0.5,1.7v0.2c0,0.7,0.2,1.3,0.5,1.7
		S75.5,98.6,76.1,98.6z"/>
	<path class="st2" d="M82.5,99.5c-0.9,0-1.6-0.3-2.1-0.8s-0.8-1.3-0.8-2.3v-0.2c0-0.6,0.1-1.2,0.4-1.7s0.6-0.9,1-1.2
		s0.9-0.4,1.4-0.4c0.8,0,1.5,0.3,1.9,0.8s0.7,1.3,0.7,2.3v0.5h-4.3c0,0.6,0.2,1.1,0.5,1.5s0.8,0.6,1.3,0.6c0.4,0,0.7-0.1,1-0.2
		s0.5-0.4,0.7-0.6l0.7,0.5C84.3,99.1,83.5,99.5,82.5,99.5z M82.3,93.8c-0.4,0-0.8,0.2-1.1,0.5s-0.5,0.8-0.6,1.3h3.2v-0.1
		c0-0.6-0.2-1-0.4-1.3S82.8,93.8,82.3,93.8z"/>
	<path class="st2" d="M88.9,96.1c0-0.6,0.1-1.2,0.4-1.7s0.6-0.9,1-1.1s0.9-0.4,1.5-0.4c0.9,0,1.6,0.3,2.1,0.9s0.8,1.4,0.8,2.4v0.1
		c0,0.6-0.1,1.2-0.4,1.7s-0.6,0.9-1,1.1s-0.9,0.4-1.5,0.4c-0.9,0-1.6-0.3-2.1-0.9S88.9,97.2,88.9,96.1L88.9,96.1z M90,96.3
		c0,0.7,0.2,1.3,0.5,1.7s0.8,0.6,1.3,0.6c0.6,0,1-0.2,1.3-0.6s0.5-1,0.5-1.8c0-0.7-0.2-1.3-0.5-1.7s-0.8-0.6-1.3-0.6
		c-0.5,0-1,0.2-1.3,0.6S90,95.5,90,96.3z"/>
	<path class="st2" d="M98,97.9l1.6-4.9h1.1l-2.3,6.3h-0.8L95.3,93h1.1L98,97.9z"/>
	<path class="st2" d="M104.3,99.5c-0.9,0-1.6-0.3-2.1-0.8s-0.8-1.3-0.8-2.3v-0.2c0-0.6,0.1-1.2,0.4-1.7s0.6-0.9,1-1.2
		s0.9-0.4,1.4-0.4c0.8,0,1.5,0.3,1.9,0.8c0.5,0.5,0.7,1.3,0.7,2.3v0.5h-4.3c0,0.6,0.2,1.1,0.5,1.5s0.8,0.6,1.3,0.6
		c0.4,0,0.7-0.1,1-0.2s0.5-0.4,0.7-0.6l0.7,0.5C106.1,99.1,105.3,99.5,104.3,99.5z M104.2,93.8c-0.4,0-0.8,0.2-1.1,0.5
		s-0.5,0.8-0.6,1.3h3.2v-0.1c0-0.6-0.2-1-0.4-1.3S104.6,93.8,104.2,93.8z"/>
	<path class="st2" d="M111.1,94c-0.2,0-0.3,0-0.5,0c-0.7,0-1.2,0.3-1.4,0.9v4.5H108V93h1.1l0,0.7c0.4-0.6,0.9-0.8,1.5-0.8
		c0.2,0,0.4,0,0.5,0.1V94z"/>
	<path class="st2" d="M120.4,96.3c0,1-0.2,1.7-0.7,2.3s-1,0.9-1.8,0.9c-0.8,0-1.4-0.2-1.8-0.7v3.1H115V93h1l0.1,0.7
		c0.4-0.5,1.1-0.8,1.8-0.8c0.8,0,1.4,0.3,1.8,0.9S120.4,95.1,120.4,96.3L120.4,96.3z M119.3,96.1c0-0.7-0.2-1.3-0.5-1.7
		s-0.7-0.6-1.3-0.6c-0.7,0-1.1,0.3-1.5,0.9v3c0.3,0.6,0.8,0.9,1.5,0.9c0.5,0,0.9-0.2,1.2-0.6S119.3,96.9,119.3,96.1z"/>
	<path class="st2" d="M125.7,98.7c-0.4,0.5-1,0.7-1.9,0.7c-0.7,0-1.2-0.2-1.5-0.6s-0.5-1-0.5-1.7V93h1.1v4.1c0,1,0.4,1.4,1.2,1.4
		c0.8,0,1.4-0.3,1.7-0.9V93h1.1v6.3h-1L125.7,98.7z"/>
	<path class="st2" d="M131.5,94c-0.2,0-0.3,0-0.5,0c-0.7,0-1.2,0.3-1.4,0.9v4.5h-1.1V93h1.1l0,0.7c0.4-0.6,0.9-0.8,1.5-0.8
		c0.2,0,0.4,0,0.5,0.1V94z"/>
	<path class="st2" d="M134.9,98.6c0.4,0,0.7-0.1,1-0.4s0.4-0.5,0.5-0.9h1c0,0.4-0.1,0.7-0.4,1s-0.5,0.6-0.9,0.8s-0.8,0.3-1.2,0.3
		c-0.9,0-1.5-0.3-2.1-0.9s-0.8-1.4-0.8-2.4v-0.2c0-0.6,0.1-1.2,0.3-1.6s0.6-0.9,1-1.1s0.9-0.4,1.5-0.4c0.7,0,1.3,0.2,1.8,0.6
		s0.7,1,0.8,1.7h-1c0-0.4-0.2-0.7-0.5-1s-0.6-0.4-1-0.4c-0.6,0-1,0.2-1.3,0.6s-0.5,1-0.5,1.7v0.2c0,0.7,0.2,1.3,0.5,1.7
		S134.3,98.6,134.9,98.6z"/>
	<path class="st2" d="M139.7,93.8c0.5-0.6,1.1-0.9,1.9-0.9c1.3,0,2,0.8,2,2.3v4.2h-1.1v-4.2c0-0.5-0.1-0.8-0.3-1s-0.5-0.3-1-0.3
		c-0.4,0-0.7,0.1-0.9,0.3s-0.5,0.4-0.6,0.7v4.5h-1.1v-9h1.1V93.8z"/>
	<path class="st2" d="M149.1,99.4c-0.1-0.1-0.1-0.3-0.2-0.7c-0.5,0.5-1.1,0.8-1.8,0.8c-0.6,0-1.1-0.2-1.5-0.5s-0.6-0.8-0.6-1.3
		c0-0.7,0.3-1.2,0.8-1.5s1.2-0.5,2.1-0.5h1.1V95c0-0.4-0.1-0.7-0.3-0.9s-0.6-0.3-1-0.3c-0.4,0-0.7,0.1-1,0.3s-0.4,0.4-0.4,0.7h-1.1
		c0-0.3,0.1-0.6,0.3-0.9s0.5-0.5,0.9-0.7s0.8-0.3,1.3-0.3c0.7,0,1.3,0.2,1.7,0.5s0.6,0.9,0.6,1.5v2.9c0,0.6,0.1,1,0.2,1.4v0.1H149.1
		z M147.3,98.5c0.3,0,0.7-0.1,1-0.3s0.5-0.4,0.7-0.7v-1.3h-0.8c-1.3,0-2,0.4-2,1.2c0,0.3,0.1,0.6,0.3,0.8S147,98.5,147.3,98.5z"/>
	<path class="st2" d="M155.5,97.7c0-0.3-0.1-0.5-0.3-0.7s-0.6-0.3-1.2-0.4s-1-0.3-1.3-0.4s-0.6-0.4-0.7-0.6s-0.2-0.5-0.2-0.8
		c0-0.5,0.2-1,0.7-1.3s1-0.5,1.7-0.5c0.7,0,1.3,0.2,1.7,0.6s0.7,0.8,0.7,1.4h-1.1c0-0.3-0.1-0.6-0.4-0.8s-0.6-0.3-1-0.3
		c-0.4,0-0.7,0.1-0.9,0.3s-0.3,0.4-0.3,0.7c0,0.3,0.1,0.5,0.3,0.6s0.6,0.3,1.1,0.4s1,0.3,1.3,0.4s0.6,0.4,0.7,0.6s0.2,0.5,0.2,0.9
		c0,0.6-0.2,1-0.7,1.4s-1,0.5-1.8,0.5c-0.5,0-1-0.1-1.3-0.3s-0.7-0.4-0.9-0.8s-0.3-0.7-0.3-1h1.1c0,0.4,0.2,0.7,0.4,0.9
		s0.6,0.3,1.1,0.3c0.4,0,0.7-0.1,1-0.2S155.5,98,155.5,97.7z"/>
	<path class="st2" d="M160.6,99.5c-0.9,0-1.6-0.3-2.1-0.8s-0.8-1.3-0.8-2.3v-0.2c0-0.6,0.1-1.2,0.4-1.7s0.6-0.9,1-1.2
		s0.9-0.4,1.4-0.4c0.8,0,1.5,0.3,1.9,0.8s0.7,1.3,0.7,2.3v0.5h-4.3c0,0.6,0.2,1.1,0.5,1.5s0.8,0.6,1.3,0.6c0.4,0,0.7-0.1,1-0.2
		s0.5-0.4,0.7-0.6l0.7,0.5C162.4,99.1,161.6,99.5,160.6,99.5z M160.4,93.8c-0.4,0-0.8,0.2-1.1,0.5s-0.5,0.8-0.6,1.3h3.2v-0.1
		c0-0.6-0.2-1-0.4-1.3S160.9,93.8,160.4,93.8z"/>
	<path class="st2" d="M168,97.7c0-0.3-0.1-0.5-0.3-0.7s-0.6-0.3-1.2-0.4s-1-0.3-1.3-0.4s-0.6-0.4-0.7-0.6s-0.2-0.5-0.2-0.8
		c0-0.5,0.2-1,0.7-1.3s1-0.5,1.7-0.5c0.7,0,1.3,0.2,1.7,0.6s0.7,0.8,0.7,1.4h-1.1c0-0.3-0.1-0.6-0.4-0.8s-0.6-0.3-1-0.3
		c-0.4,0-0.7,0.1-0.9,0.3s-0.3,0.4-0.3,0.7c0,0.3,0.1,0.5,0.3,0.6s0.6,0.3,1.1,0.4s1,0.3,1.3,0.4s0.6,0.4,0.7,0.6s0.2,0.5,0.2,0.9
		c0,0.6-0.2,1-0.7,1.4s-1,0.5-1.8,0.5c-0.5,0-1-0.1-1.3-0.3s-0.7-0.4-0.9-0.8s-0.3-0.7-0.3-1h1.1c0,0.4,0.2,0.7,0.4,0.9
		s0.6,0.3,1.1,0.3c0.4,0,0.7-0.1,1-0.2S168,98,168,97.7z"/>
</g>
</svg>
