<?xml version="1.0" encoding="utf-8"?>
<!-- Generator: Adobe Illustrator 22.1.0, SVG Export Plug-In . SVG Version: 6.00 Build 0)  -->
<svg version="1.1" id="Layer_1" xmlns="http://www.w3.org/2000/svg" xmlns:xlink="http://www.w3.org/1999/xlink" x="0px" y="0px"
	 viewBox="0 0 73.3 69.5" style="enable-background:new 0 0 73.3 69.5;" xml:space="preserve">
<style type="text/css">
	.st0{clip-path:url(#SVGID_2_);fill:#9EA0A3;}
</style>
<g>
	<defs>
		<rect id="SVGID_1_" x="1.2" y="1.7" width="70.9" height="66"/>
	</defs>
	<clipPath id="SVGID_2_">
		<use xlink:href="#SVGID_1_"  style="overflow:visible;"/>
	</clipPath>
	<path class="st0" d="M3.5,29.7c0-1.6,1.3-2.9,2.9-2.9c1.6,0,2.8,1.3,2.8,2.9c0,1.6-1.3,2.8-2.8,2.8C4.7,32.6,3.5,31.3,3.5,29.7
		 M9.8,49.1c0-2.1,1.7-3.9,3.9-3.9c2.1,0,3.9,1.7,3.9,3.9c0,2.1-1.7,3.9-3.9,3.9C11.6,53,9.8,51.2,9.8,49.1 M15.5,43.5
		c-0.6-0.2-1.2-0.3-1.8-0.3c-0.4,0-0.8,0-1.1,0.1c-1.5-3.1-2.3-6.5-2.5-10.1c0.6-0.7,1.1-1.5,1.2-2.4c0.5-0.1,5.4-0.8,14.3-0.6
		C22,34.3,18.5,38.9,15.5,43.5 M27.5,27.8c-5.3-0.1-10.8,0-16.3,0.7v0c-0.1-0.6-0.4-1.1-0.7-1.6c0.6-2.9,1.6-5.6,3-8
		c0.7,0.2,1.4,0.4,2.2,0.4c2.5,0,4.6-1.3,5.7-3.3c2.5,0.6,7,2,13.1,4.3C32.3,22.5,29.9,25.1,27.5,27.8 M30.4,27.9
		c1.9-2.3,4-4.6,6.3-7c5.2,2,11.3,4.7,18.2,8.3c0.1,0.6,0.2,1.1,0.3,1.7C49.8,29.9,40.7,28.4,30.4,27.9 M52.1,11.9
		c0.5-0.1,0.9-0.3,1.3-0.6c5.1,4.1,8.6,10,9.6,16.8c-0.9,0.4-1.6,1.1-2.2,1.8c-0.8-0.5-2.2-1.3-4.1-2.3C55.1,19.1,53,13.9,52.1,11.9
		 M57.4,31.4c-0.1-0.3-0.1-0.6-0.2-0.9c0.8,0.4,1.7,0.9,2.6,1.4c0,0,0,0.1,0,0.1C59.3,31.8,58.5,31.6,57.4,31.4 M59.1,46.2
		c0,0-0.1,0-0.1,0c-0.3-4.6-0.7-8.7-1.2-12.4c0.6,0.1,1.2,0.2,1.8,0.3c0.1,2,1.2,3.7,2.8,4.8C61.7,41.5,60.6,44,59.1,46.2
		 M61.7,33.6c0-2.3,1.8-4.1,4.1-4.1c2.3,0,4.1,1.8,4.1,4.1c0,2.3-1.8,4.1-4.1,4.1C63.6,37.7,61.7,35.9,61.7,33.6 M53.4,7
		c0,1.4-1.2,2.6-2.6,2.6S48.1,8.5,48.1,7c0-1.4,1.2-2.6,2.6-2.6S53.4,5.6,53.4,7 M36.2,18.4c-4.1-1.5-8.6-3-13.5-4.4
		c4.7-1.3,15.5-4.2,23.3-5.2c0,0,0,0.1,0,0.1C44.2,10.5,40.6,13.9,36.2,18.4 M54.3,26.3c-3.9-2-9.4-4.6-16-7.1
		c2.9-2.9,5.9-5.7,9.1-8.4c0.7,0.6,1.6,1,2.6,1.2C52,16.2,53.3,21.3,54.3,26.3 M36.6,5.3c2.8,0,5.6,0.5,8.2,1.3
		c-4.2,0.8-16.7,3.3-22.6,5c-0.1-0.6-0.3-1.2-0.5-1.7C26,7,31.1,5.3,36.6,5.3 M1.2,29.7c0,2.8,2.3,5.1,5.1,5.1c0.1,0,0.2,0,0.2,0
		c0.3,3.6,1.3,7.1,2.8,10.3c-1,1.1-1.6,2.5-1.6,4c0,3.3,2.6,5.9,5.9,5.9c3.3,0,5.9-2.6,5.9-5.9c0-1.8-0.8-3.3-2-4.4
		c1.3-1.9,5.2-7.6,10.9-14.5c7,0.3,16,1.2,27.1,3.2c0.8,5.7,1.2,10.6,1.4,13c-1.7,0.6-3,2.2-3,4.2c0,2.4,2,4.4,4.4,4.4
		c2.4,0,4.4-2,4.4-4.4c0-0.8-0.2-1.6-0.6-2.2c1.6-2.6,2.9-5.4,3.7-8.4h0c3.5,0,6.3-2.8,6.3-6.3c0-3.2-2.4-5.9-5.6-6.2
		c-1.2-7.7-5.2-14.4-10.9-19C55.7,8,55.8,7.5,55.8,7c0-2.8-2.3-5-5-5c-1.5,0-2.8,0.6-3.7,1.6c-3.3-1.2-6.8-1.9-10.4-1.9
		c-6.4,0-12.4,2-17.3,5.4C18.3,6.4,17,6,15.6,6C12,6,9,8.9,9,12.6c0,1.6,0.6,3,1.5,4.2c-1.4,2.5-2.5,5.1-3.2,8
		c-0.3-0.1-0.6-0.1-1-0.1C3.5,24.7,1.2,26.9,1.2,29.7"/>
	<path class="st0" d="M50,45.6c0,1.6-6,3-13.3,3c-7.4,0-13.3-1.3-13.3-3s6-3,13.3-3C44,42.6,50,44,50,45.6"/>
	<path class="st0" d="M36.7,49.8c-5.9,0-10.9-0.8-12.6-2c-0.3-0.2-0.7,0-0.7,0.4V52c0,1.6,6,3,13.3,3S50,53.6,50,52v-3.9
		c0-0.4-0.4-0.6-0.7-0.4C47.5,48.9,42.5,49.8,36.7,49.8"/>
	<path class="st0" d="M36.7,56.2c-5.9,0-10.9-0.8-12.6-2c-0.3-0.2-0.7,0-0.7,0.4v3.9c0,1.6,6,3,13.3,3S50,60,50,58.4v-3.9
		c0-0.4-0.4-0.6-0.7-0.4C47.5,55.3,42.5,56.2,36.7,56.2"/>
	<path class="st0" d="M36.7,62.6c-5.9,0-10.9-0.8-12.6-2c-0.3-0.2-0.7,0-0.7,0.4v3.9c0,1.6,6,3,13.3,3s13.3-1.3,13.3-3v-3.9
		c0-0.4-0.4-0.6-0.7-0.4C47.5,61.7,42.5,62.6,36.7,62.6"/>
</g>
</svg>
