<?xml version="1.0" encoding="utf-8"?>
<!-- Generator: Adobe Illustrator 22.1.0, SVG Export Plug-In . SVG Version: 6.00 Build 0)  -->
<svg version="1.1" id="Layer_1" xmlns="http://www.w3.org/2000/svg" xmlns:xlink="http://www.w3.org/1999/xlink" x="0px" y="0px"
	 viewBox="0 0 73.3 69.5" style="enable-background:new 0 0 73.3 69.5;" xml:space="preserve">
<style type="text/css">
	.st0{clip-path:url(#SVGID_2_);fill:#9EA0A3;}
</style>
<g>
	<defs>
		<rect id="SVGID_1_" x="1.4" y="1.3" width="70.5" height="66.8"/>
	</defs>
	<clipPath id="SVGID_2_">
		<use xlink:href="#SVGID_1_"  style="overflow:visible;"/>
	</clipPath>
	<path class="st0" d="M68.1,53.1c-0.6,0-1.2,0.1-1.7,0.4l-4.7-4.7l0,0v0c0,0-7.8,4.9-25.1,4.9c-16.9,0-24.7-4.7-25-4.9l0,0l0,0l0,0
		v0l-4.7,4.7c-0.5-0.3-1.1-0.4-1.7-0.4c-2.1,0-3.8,1.7-3.8,3.8c0,2.1,1.7,3.8,3.8,3.8c2.1,0,3.8-1.7,3.8-3.8c0-0.6-0.1-1.2-0.4-1.7
		l3.6-3.6c2.2,1.1,9.6,4.3,23.1,4.5v4.5c-1.5,0.5-2.6,1.9-2.6,3.6c0,2.1,1.7,3.8,3.8,3.8c2.1,0,3.8-1.7,3.8-3.8
		c0-1.7-1.1-3.1-2.6-3.6v-4.5C51.5,56,59,52.7,61,51.6l3.6,3.6c-0.3,0.5-0.4,1.1-0.4,1.7c0,2.1,1.7,3.8,3.8,3.8
		c2.1,0,3.8-1.7,3.8-3.8C71.9,54.8,70.2,53.1,68.1,53.1"/>
	<path class="st0" d="M41.4,41l-2.5-1.5l4.5-3l1,1.2L41.4,41z M36.6,38.1l-3-2c1,0.2,2,0.3,3.1,0.3c1,0,2-0.1,3-0.3L36.6,38.1z
		 M31.9,41L29,37.8l1-1.2l4.4,2.9L31.9,41z M24.3,21.7v-5.6c0-6.8,5.5-12.3,12.3-12.3S49,9.3,49,16.1v5.6C49,28.5,43.5,34,36.7,34
		S24.3,28.5,24.3,21.7 M46.7,36.8l-2.2-2.7c4.2-2.6,6.9-7.2,6.9-12.5v-5.6c0-8.1-6.6-14.8-14.8-14.8S21.9,8,21.9,16.1v5.6
		c0,5.3,2.8,9.9,6.9,12.5l-2.2,2.7c-7.3,2-12.5,6-13.1,10.9l2.3,1.1c0-4.1,4.6-7.7,11.2-9.5l4.4,4.8l1.6-1l0.7,1.1l-1.5,4.2l1.1,0.4
		l1.1,0.4l1.9-5.3l-1.2-2l1.5-0.9l1.5,0.9l-1.2,2l1.9,5.3l2.3-0.8l-1.5-4.2l0.7-1.1l1.7,1l4.4-4.8c6.6,1.8,11.2,5.4,11.2,9.5
		l2.3-1.1C59.1,42.8,54,38.8,46.7,36.8"/>
</g>
</svg>
