<?xml version="1.0" encoding="utf-8"?>
<!-- Generator: Adobe Illustrator 22.1.0, SVG Export Plug-In . SVG Version: 6.00 Build 0)  -->
<svg version="1.1" id="Layer_1" xmlns="http://www.w3.org/2000/svg" xmlns:xlink="http://www.w3.org/1999/xlink" x="0px" y="0px"
	 viewBox="0 0 65.7 69.5" style="enable-background:new 0 0 65.7 69.5;" xml:space="preserve">
<style type="text/css">
	.st0{clip-path:url(#SVGID_2_);fill:#9C9EA1;}
</style>
<g>
	<defs>
		<rect id="SVGID_1_" x="1.7" y="1.5" width="61.7" height="66"/>
	</defs>
	<clipPath id="SVGID_2_">
		<use xlink:href="#SVGID_1_"  style="overflow:visible;"/>
	</clipPath>
	<path class="st0" d="M49.8,18.8v26.4l-5.1,5H18.4V18.8H49.8z M36.4,63.1c0,1.3-1.1,2.4-2.4,2.4c-1.3,0-2.4-1.1-2.4-2.4
		c0-1.3,1.1-2.4,2.4-2.4C35.3,60.7,36.4,61.8,36.4,63.1 M21.5,5.9c0-1.3,1.1-2.4,2.4-2.4c1.3,0,2.4,1.1,2.4,2.4
		c0,1.3-1.1,2.4-2.4,2.4C22.6,8.4,21.5,7.3,21.5,5.9 M57.5,44.9c1.3,0,2.4,1.1,2.4,2.4c0,1.3-1.1,2.4-2.4,2.4
		c-1.3,0-2.4-1.1-2.4-2.4C55.1,46,56.2,44.9,57.5,44.9 M16.5,60.7c-1.3,0-2.4-1.1-2.4-2.4c0-1.3,1.1-2.4,2.4-2.4
		c1.3,0,2.4,1.1,2.4,2.4C19,59.6,17.9,60.7,16.5,60.7 M9.7,44.9c-1.3,0-2.4-1.1-2.4-2.4c0-1.3,1.1-2.4,2.4-2.4
		c1.3,0,2.4,1.1,2.4,2.4C12.1,43.8,11,44.9,9.7,44.9 M8.5,28.8c0,1.3-1.1,2.4-2.4,2.4c-1.3,0-2.4-1.1-2.4-2.4c0-1.3,1.1-2.4,2.4-2.4
		C7.4,26.4,8.5,27.4,8.5,28.8 M51.9,8.9c1.3,0,2.4,1.1,2.4,2.4c0,1.3-1.1,2.4-2.4,2.4c-1.3,0-2.4-1.1-2.4-2.4
		C49.4,10,50.5,8.9,51.9,8.9 M60.8,9.8c0.8,0,1.5,0.7,1.5,1.5s-0.7,1.5-1.5,1.5s-1.5-0.7-1.5-1.5S59.9,9.8,60.8,9.8 M47.6,12.4
		c0.5,1.9,2.2,3.3,4.3,3.3c2.2,0,4-1.6,4.3-3.8h2c0.3,1.2,1.3,2,2.6,2c1.5,0,2.7-1.2,2.7-2.7c0-1.5-1.2-2.7-2.7-2.7
		c-1.3,0-2.3,0.9-2.6,2h-2c-0.3-2.1-2.1-3.8-4.3-3.8c-2.1,0-3.8,1.4-4.3,3.4h-4.5H41v2.1v4.3H25v-6.5c1.9-0.5,3.4-2.2,3.4-4.3
		c0-2.4-2-4.4-4.4-4.4c-2.4,0-4.4,2-4.4,4.4c0,2.1,1.4,3.8,3.4,4.3v6.5h-6.7v4H7.2H5.1v2.1v1.7c-1.9,0.5-3.4,2.2-3.4,4.3
		c0,2.4,2,4.4,4.4,4.4c2.4,0,4.4-2,4.4-4.4c0-2.1-1.4-3.8-3.3-4.3v-1.7h9.1v11.5h-1.6c-0.2-1-1.1-1.7-2.1-1.7c-1.2,0-2.2,1-2.2,2.2
		c0,1.2,1,2.2,2.2,2.2c1,0,1.9-0.7,2.1-1.7h1.6v6.1H14c-0.5-1.9-2.2-3.4-4.3-3.4c-2.4,0-4.4,2-4.4,4.4c0,2.4,2,4.4,4.4,4.4
		c2.1,0,3.8-1.4,4.3-3.4h2.3v8.8h9v4.9h-4.5c-0.5-1.9-2.2-3.3-4.3-3.3c-2.4,0-4.4,2-4.4,4.4s2,4.4,4.4,4.4c2.1,0,3.8-1.4,4.3-3.4
		h4.5h2.1v-2.1v-4.9h5.6v6.6c-1.9,0.5-3.4,2.2-3.4,4.3c0,2.4,2,4.4,4.4,4.4c2.4,0,4.4-2,4.4-4.4c0-2.1-1.4-3.8-3.4-4.3v-6.6h7.3v1
		c-1,0.2-1.7,1.1-1.7,2.1c0,1.2,1,2.2,2.2,2.2c1.2,0,2.2-1,2.2-2.2c0-1-0.7-1.9-1.7-2.1v-1h2.4l6.1-6v-7.7h4.6v4.5
		c-1.9,0.5-3.3,2.2-3.3,4.3c0,2.4,2,4.4,4.4,4.4c2.4,0,4.4-2,4.4-4.4c0-2.1-1.5-3.8-3.4-4.3v-4.5v-2.1h-2.1h-4.6V21h1.3
		c0.2,1,1.1,1.7,2.1,1.7c1.2,0,2.2-1,2.2-2.2c0-1.2-1-2.2-2.2-2.2c-1,0-1.9,0.7-2.1,1.7h-1.3v-3.3h-8.8v-4.3H47.6z"/>
	<path class="st0" d="M30.7,36.7l0.9,0.8c2.3,2.1,5.7,1.9,7.8-0.4l4.2-4.6c2-2.2,1.9-5.7-0.4-7.7l-0.7-0.6c-2.2-2-5.7-1.9-7.7,0.4
		l-2,2.2c-0.5,0.5-0.5,1.4,0.1,1.9c0.5,0.5,1.4,0.5,1.9-0.1l1.7-1.9c1.2-1.3,3.3-1.4,4.6-0.2c1.3,1.2,1.4,3.3,0.2,4.6L37.8,35
		c-1.2,1.3-3.3,1.4-4.6,0.2c-0.2-0.2-0.4-0.4-0.6-0.6L30.7,36.7z"/>
	<path class="st0" d="M37.2,32.2l-0.9-0.8c-2.3-2.1-5.7-1.9-7.8,0.4l-4.2,4.6c-2,2.2-1.9,5.7,0.4,7.7l0.7,0.6c2.2,2,5.7,1.9,7.7-0.4
		l2-2.2c0.5-0.5,0.5-1.4-0.1-1.9c-0.5-0.5-1.4-0.5-1.9,0.1l-1.7,1.9c-1.2,1.3-3.3,1.4-4.6,0.2c-1.3-1.2-1.4-3.3-0.2-4.6l3.6-3.9
		c1.2-1.3,3.3-1.4,4.6-0.2c0.2,0.2,0.4,0.4,0.6,0.6L37.2,32.2z"/>
</g>
</svg>
