<?xml version="1.0" encoding="utf-8"?>
<!-- Generator: Adobe Illustrator 22.1.0, SVG Export Plug-In . SVG Version: 6.00 Build 0)  -->
<svg version="1.1" id="Layer_1" xmlns="http://www.w3.org/2000/svg" xmlns:xlink="http://www.w3.org/1999/xlink" x="0px" y="0px"
	 viewBox="0 0 483 64" style="enable-background:new 0 0 483 64;" xml:space="preserve">
<style type="text/css">
	.st0{clip-path:url(#SVGID_2_);fill:#123458;}
	.st1{clip-path:url(#SVGID_2_);fill:#F15C41;}
	.st2{clip-path:url(#SVGID_4_);fill:#123458;}
	.st3{clip-path:url(#SVGID_6_);fill:none;stroke:#77787B;stroke-width:1.3567;stroke-miterlimit:10;}
</style>
<g>
	<defs>
		<rect id="SVGID_1_" x="343.6" y="6.2" width="129.6" height="48.8"/>
	</defs>
	<clipPath id="SVGID_2_">
		<use xlink:href="#SVGID_1_"  style="overflow:visible;"/>
	</clipPath>
	<path class="st0" d="M424,25.2c-5.9,0-10.8,4.7-10.8,10.6V55H424L424,25.2"/>
	<path class="st1" d="M413.2,20.8c5.9,0,10.8-4.8,10.8-10.6V6.2h-10.8L413.2,20.8"/>
	<path class="st0" d="M457.5,23.6h-5.9h-2h-4c-1.8,0-3.3-1.5-3.3-3.3c0-1.8,1.5-3.3,3.3-3.3h22.2V6.2h-22.2
		c-7.8,0-14.1,6.3-14.1,14.1s6.3,12.4,14.1,12.4h4h2h4c4.3,0,6.8,2.3,6.8,5.8c0,3.7-2.9,5.7-6.7,5.7h-22.9V55h24.7
		c8.7,0,15.7-7,15.7-15.7S466.2,23.6,457.5,23.6"/>
	<path class="st0" d="M393.6,6.2v30.9c0,3.9-3.2,7.1-7.1,7.1c-3.9,0-7.1-3.2-7.1-7.1V6.2h-10.8v30.9c0,3.9-3.2,7.1-7.1,7.1
		c-3.9,0-7.1-3.2-7.1-7.1V6.2h-10.8v30.9c0,9.9,8,17.9,17.9,17.9c4.9,0,9.3-1.9,12.5-5.1c3.2,3.2,7.6,5.1,12.5,5.1
		c9.9,0,17.9-8,17.9-17.9V6.2H393.6z"/>
</g>
<g>
	<defs>
		<rect id="SVGID_3_" x="5.7" y="6.2" width="269.1" height="48.8"/>
	</defs>
	<clipPath id="SVGID_4_">
		<use xlink:href="#SVGID_3_"  style="overflow:visible;"/>
	</clipPath>
	<path class="st2" d="M102.9,10.6c-3.5-2-8.4-2.1-13.9-2.1H77.2v45.4h11.4V37.6h0.5c6.4,0,10.7-0.3,13.9-2.1
		c4.2-2.4,6.5-6.8,6.5-12.5C109.5,17.4,107.1,13,102.9,10.6 M90.4,28.5h-1.9v-11h1.9c5.9,0,7.5,1.2,7.5,5.5
		C98,27.3,96.4,28.5,90.4,28.5"/>
	<path class="st2" d="M50.7,8.4l-13,45.4h11.1c0,0,2-7.7,2.3-8.7h11.9c0.3,1.1,2.3,8.7,2.3,8.7h11.1L63.3,8.4H50.7z M53.4,36
		c0.4-1.5,2.6-11,3.7-15.3c1,4.4,3.3,13.8,3.6,15.3H53.4z"/>
	<path class="st2" d="M29.4,54c5.6-2.1,9.1-6.9,9.1-13.2c0-4.4-1.7-8.2-4.9-10.8c-2.1-1.7-4.8-2.8-8-4.1l-3.1-1.3
		c-3.3-1.5-4.8-2.9-4.8-4.6c0-1.9,1.6-3.2,4-3.2c2.7,0,5,1.5,7.2,4.6l0.5,0.7l8.3-5.9l-0.4-0.7c-3.3-5.3-8.4-8.1-15-8.1
		c-9.1,0-15,5.3-15,13.5c0,4.3,1.7,7.9,4.9,10.5c2.3,1.8,5.2,3,8.6,4.3l2.5,1c3.9,1.6,4.3,3.5,4.3,4.8c0,2.3-1.9,3.8-4.7,3.8
		c-3.1,0-5.3-1.6-7.8-5.6l-0.5-0.8l-8.9,6.3l0.4,0.7c2.4,3.8,5.4,6.7,9.2,7.9C22.5,56.1,29.4,54,29.4,54"/>
	<path class="st2" d="M114.6,9.4h4.2v5.4h-4.2V9.4z M114.6,21.4h4.2v32.7h-4.2V21.4z"/>
	<path class="st2" d="M127.8,22.7l4.5-2V28h0.5c3.8-4.9,7.5-7.3,11.3-7.3c5.2,0,8,3.6,8,10.5v23h-4.5V31.9c0-5.2-1.2-7.4-4.7-7.4
		c-3.3,0-7,2.6-10.7,7.8v21.9h-4.5V22.7"/>
	<path class="st2" d="M158.4,47.3c3.2,2.5,6,3.8,8.7,3.8c4,0,6.8-2.6,6.8-5.9c0-2.4-1.3-3.7-4.1-4.9l-6.3-2.6
		c-4.1-1.7-6.2-4.7-6.2-8.5c0-4.9,4.2-8.6,10.6-8.6c2.9,0,5.8,0.9,8.8,2.6l-1.6,3.8c-2.9-1.7-5.4-2.7-7.7-2.7c-3.7,0-6,1.9-6,4.5
		c0,2.3,1.4,3.9,4.3,5.1l4.9,1.9c5.1,2,7.5,4.6,7.5,9c0,5.8-4.4,10.1-10.8,10.1c-4.1,0-7.7-1.4-10.8-3.9L158.4,47.3"/>
	<path class="st2" d="M185.5,9.4h4.2v5.4h-4.2V9.4z M185.5,21.4h4.2v32.7h-4.2V21.4z"/>
	<path class="st2" d="M200.7,37.9c0-8.6,2.9-13.1,7.8-13.1c2,0,4.2,1.3,5.9,3.5c2.1,2.8,3.2,6.2,3.2,9.6c0,3.4-1.2,6.8-3.2,9.6
		c-1.6,2.2-3.9,3.4-5.9,3.4C203.6,50.9,200.7,46.4,200.7,37.9 M222,52.6V6.2l-4.4,1.9v19.7H217c-2.9-4.7-6.4-7.1-10-7.1
		c-6.9,0-11,6-11,17.2c0,11,4.1,17,11,17c3.6,0,7.1-2.4,10-7.1h0.6v6.4L222,52.6"/>
	<path class="st2" d="M231.6,33.8c0.5-6.1,3.1-9.2,7.7-9.2c4.7,0,7.3,3.2,7.5,9.2H231.6z M250.3,49.9l-3.2-2.6
		c-2.4,2.5-4.9,3.8-7.2,3.8c-5.7,0-8.3-3.9-8.3-12v-1.6h19.7v-0.7c0-10.3-4.7-16-12.1-16c-7.3,0-12.3,6.1-12.3,16.9
		c0,11.2,4.5,17.3,12.3,17.3C243.6,55,247.5,53.2,250.3,49.9"/>
	<path class="st2" d="M256.6,22.7l4.5-1.9v12.4h0.6c5.1-7.5,9.5-11.7,13.2-12.4v8.1h-0.4c-5.3,0-9.5,2.7-13.4,8.4v17h-4.5V22.7"/>
</g>
<g>
	<defs>
		<rect id="SVGID_5_" x="5.7" y="6.2" width="467.5" height="49.4"/>
	</defs>
	<clipPath id="SVGID_6_">
		<use xlink:href="#SVGID_5_"  style="overflow:visible;"/>
	</clipPath>
	<line class="st3" x1="309.2" y1="6.7" x2="309.2" y2="55.5"/>
</g>
</svg>
